<svg width="1500" height="293" viewBox="0 0 1500 293" fill="none" xmlns="http://www.w3.org/2000/svg">
<rect width="1500" height="181" fill="url(#paint0_linear)"/>
<path d="M622.7 110.7C622.5 110.433 622.4 110.183 622.4 109.95C622.4 109.717 622.417 109.567 622.45 109.5L634.05 77.6C634.417 76.6333 635.083 76.15 636.05 76.15H643.8C644.767 76.15 645.433 76.6333 645.8 77.6L657.4 109.5C657.433 109.567 657.45 109.717 657.45 109.95C657.45 110.217 657.333 110.467 657.1 110.7C656.9 110.9 656.667 111 656.4 111H649.95C649.117 111 648.55 110.633 648.25 109.9L645.65 102.85C644.45 103.317 643.233 103.7 642 104C640.767 104.3 639.567 104.533 638.4 104.7C637.267 104.833 636.2 104.933 635.2 105C634.2 105.033 633.333 105.05 632.6 105.05C632.133 105.05 631.733 105.05 631.4 105.05C631.067 105.05 630.817 105.033 630.65 105C631.283 105.067 631.783 105.4 632.15 106C632.55 106.567 632.6 107.233 632.3 108L631.6 109.9C631.3 110.633 630.733 111 629.9 111H623.45C623.217 111 622.967 110.9 622.7 110.7ZM635.4 97.9C636.333 97.8333 637.3 97.7167 638.3 97.55C639.167 97.4167 640.067 97.2333 641 97C641.967 96.7333 642.883 96.3667 643.75 95.9L639.9 84.9L635.4 97.9ZM661.386 109.6V80.35C661.386 79.5833 661.52 78.9333 661.786 78.4C662.086 77.8667 662.453 77.4167 662.886 77.05C663.32 76.6833 663.786 76.4167 664.286 76.25C664.82 76.0833 665.303 76 665.736 76H678.036C679.736 76 681.336 76.1667 682.836 76.5C684.336 76.8 685.653 77.3333 686.786 78.1C687.92 78.8667 688.82 79.9 689.486 81.2C690.153 82.4667 690.486 84.05 690.486 85.95C690.486 87.3833 690.12 88.6833 689.386 89.85C688.686 91.0167 687.703 91.95 686.436 92.65C687.936 93.25 689.103 94.2833 689.936 95.75C690.803 97.1833 691.236 98.6833 691.236 100.25C691.236 102.183 690.886 103.817 690.186 105.15C689.52 106.483 688.603 107.583 687.436 108.45C686.27 109.283 684.903 109.9 683.336 110.3C681.803 110.667 680.17 110.85 678.436 110.85H662.636C662.303 110.85 662.003 110.733 661.736 110.5C661.503 110.233 661.386 109.933 661.386 109.6ZM676.986 89.8C678.12 89.8 679.036 89.5 679.736 88.9C680.436 88.2667 680.786 87.3667 680.786 86.2C680.786 85.0333 680.42 84.1667 679.686 83.6C678.986 83 678.086 82.7 676.986 82.7H667.986C668.753 82.7 669.403 82.9833 669.936 83.55C670.47 84.0833 670.736 84.6833 670.736 85.35V88.35C670.736 88.65 670.87 88.9667 671.136 89.3C671.403 89.6333 671.77 89.8 672.236 89.8H676.986ZM677.436 104.1C678.636 104.1 679.603 103.767 680.336 103.1C681.103 102.433 681.486 101.483 681.486 100.25C681.486 99.05 681.103 98.1 680.336 97.4C679.57 96.6667 678.603 96.3 677.436 96.3H667.986C668.753 96.3 669.403 96.5833 669.936 97.15C670.47 97.6833 670.736 98.2833 670.736 98.95V102.6C670.736 102.933 670.853 103.267 671.086 103.6C671.353 103.933 671.736 104.1 672.236 104.1H677.436ZM711.238 111.5C706.505 111.5 702.771 110.35 700.038 108.05C697.305 105.75 695.855 102.367 695.688 97.9C695.655 96.9667 695.638 95.5333 695.638 93.6C695.638 91.6667 695.655 90.2167 695.688 89.25C695.821 84.85 697.271 81.4667 700.038 79.1C702.838 76.7 706.571 75.5 711.238 75.5C715.871 75.5 719.571 76.7 722.338 79.1C725.138 81.4667 726.605 84.85 726.738 89.25C726.805 91.1833 726.838 92.6333 726.838 93.6C726.838 94.6 726.805 96.0333 726.738 97.9C726.571 102.367 725.121 105.75 722.388 108.05C719.688 110.35 715.971 111.5 711.238 111.5ZM711.238 104C712.971 104 714.355 103.483 715.388 102.45C716.421 101.383 716.971 99.7667 717.038 97.6C717.105 95.6667 717.138 94.2833 717.138 93.45C717.138 92.6167 717.105 91.2667 717.038 89.4C716.971 87.2333 716.421 85.6333 715.388 84.6C714.355 83.5333 712.971 83 711.238 83C709.471 83 708.071 83.5333 707.038 84.6C706.005 85.6333 705.455 87.2333 705.388 89.4C705.355 90.3333 705.338 91.6833 705.338 93.45C705.338 95.25 705.355 96.6333 705.388 97.6C705.455 99.7667 706.005 101.383 707.038 102.45C708.071 103.483 709.471 104 711.238 104ZM732.379 97.7V80.4C732.379 79.7333 732.512 79.1333 732.779 78.6C733.046 78.0667 733.379 77.6167 733.779 77.25C734.212 76.8833 734.679 76.6 735.179 76.4C735.712 76.2 736.229 76.1 736.729 76.1H740.429C740.796 76.1 741.096 76.2333 741.329 76.5C741.596 76.7333 741.729 77.0333 741.729 77.4V97.6C741.729 99.5 742.179 101.017 743.079 102.15C744.012 103.25 745.462 103.8 747.429 103.8C749.396 103.8 750.829 103.233 751.729 102.1C752.629 100.967 753.079 99.4667 753.079 97.6V80.4C753.079 79.7 753.212 79.0833 753.479 78.55C753.779 78.0167 754.129 77.5667 754.529 77.2C754.962 76.8333 755.429 76.5667 755.929 76.4C756.462 76.2 756.962 76.1 757.429 76.1H761.129C761.496 76.1 761.796 76.2333 762.029 76.5C762.296 76.7333 762.429 77.0333 762.429 77.4V97.7C762.429 100.067 762.079 102.117 761.379 103.85C760.679 105.583 759.662 107.017 758.329 108.15C757.029 109.25 755.462 110.083 753.629 110.65C751.796 111.183 749.746 111.45 747.479 111.45C745.212 111.45 743.146 111.183 741.279 110.65C739.446 110.117 737.862 109.283 736.529 108.15C735.196 107.017 734.162 105.583 733.429 103.85C732.729 102.117 732.379 100.067 732.379 97.7ZM794.956 76C795.823 76 796.256 76.4333 796.256 77.3V82.85C796.256 83.25 796.139 83.55 795.906 83.75C795.673 83.9833 795.356 84.1 794.956 84.1H783.406C784.139 84.1 784.789 84.3667 785.356 84.9C785.923 85.4333 786.206 86.0333 786.206 86.7V109.6C786.206 110 786.089 110.317 785.856 110.55C785.623 110.75 785.306 110.85 784.906 110.85H778.006C777.673 110.85 777.373 110.733 777.106 110.5C776.839 110.267 776.706 109.967 776.706 109.6V85.65C776.706 85.1833 776.539 84.8167 776.206 84.55C775.906 84.25 775.573 84.1 775.206 84.1H767.956C767.556 84.1 767.239 83.9833 767.006 83.75C766.773 83.55 766.656 83.25 766.656 82.85V80.3C766.656 79 767.106 77.9667 768.006 77.2C768.906 76.4 769.906 76 771.006 76H794.956ZM810.992 97.7V80.4C810.992 79.7333 811.126 79.1333 811.392 78.6C811.659 78.0667 811.992 77.6167 812.392 77.25C812.826 76.8833 813.292 76.6 813.792 76.4C814.326 76.2 814.842 76.1 815.342 76.1H819.042C819.409 76.1 819.709 76.2333 819.942 76.5C820.209 76.7333 820.342 77.0333 820.342 77.4V97.6C820.342 99.5 820.792 101.017 821.692 102.15C822.626 103.25 824.076 103.8 826.042 103.8C828.009 103.8 829.442 103.233 830.342 102.1C831.242 100.967 831.692 99.4667 831.692 97.6V80.4C831.692 79.7 831.826 79.0833 832.092 78.55C832.392 78.0167 832.742 77.5667 833.142 77.2C833.576 76.8333 834.042 76.5667 834.542 76.4C835.076 76.2 835.576 76.1 836.042 76.1H839.742C840.109 76.1 840.409 76.2333 840.642 76.5C840.909 76.7333 841.042 77.0333 841.042 77.4V97.7C841.042 100.067 840.692 102.117 839.992 103.85C839.292 105.583 838.276 107.017 836.942 108.15C835.642 109.25 834.076 110.083 832.242 110.65C830.409 111.183 828.359 111.45 826.092 111.45C823.826 111.45 821.759 111.183 819.892 110.65C818.059 110.117 816.476 109.283 815.142 108.15C813.809 107.017 812.776 105.583 812.042 103.85C811.342 102.117 810.992 100.067 810.992 97.7ZM875.869 100.4C875.869 102.433 875.402 104.167 874.469 105.6C873.536 107 872.336 108.133 870.869 109C869.402 109.833 867.769 110.45 865.969 110.85C864.169 111.217 862.419 111.4 860.719 111.4C859.552 111.4 858.336 111.317 857.069 111.15C855.802 111.017 854.569 110.75 853.369 110.35C852.202 109.95 851.086 109.433 850.019 108.8C848.986 108.133 848.102 107.3 847.369 106.3C846.169 104.767 845.552 103.117 845.519 101.35C845.519 101.05 845.619 100.8 845.819 100.6C846.086 100.4 846.352 100.3 846.619 100.3H853.219C853.652 100.3 853.986 100.367 854.219 100.5C854.486 100.633 854.752 100.867 855.019 101.2C855.619 102.267 856.419 103 857.419 103.4C858.452 103.767 859.552 103.95 860.719 103.95C861.219 103.95 861.786 103.917 862.419 103.85C863.052 103.75 863.652 103.6 864.219 103.4C864.786 103.167 865.269 102.85 865.669 102.45C866.069 102.05 866.269 101.517 866.269 100.85C866.269 99.9833 865.919 99.35 865.219 98.95C864.519 98.5167 863.819 98.1833 863.119 97.95C862.586 97.7833 861.919 97.6 861.119 97.4C860.352 97.2 859.452 96.9833 858.419 96.75C856.886 96.45 855.402 96.0667 853.969 95.6C852.536 95.1333 851.252 94.5 850.119 93.7C849.019 92.9 848.119 91.9 847.419 90.7C846.752 89.4667 846.419 87.95 846.419 86.15C846.419 84.25 846.836 82.6333 847.669 81.3C848.536 79.9333 849.636 78.8333 850.969 78C852.302 77.1333 853.786 76.5167 855.419 76.15C857.086 75.75 858.736 75.55 860.369 75.55C861.502 75.55 862.652 75.65 863.819 75.85C865.019 76.05 866.169 76.3667 867.269 76.8C868.369 77.2333 869.386 77.7833 870.319 78.45C871.286 79.1167 872.136 79.9167 872.869 80.85C874.002 82.35 874.602 83.8333 874.669 85.3C874.669 85.5667 874.569 85.8333 874.369 86.1C874.169 86.3 873.919 86.4 873.619 86.4H866.669C865.936 86.4 865.369 86.1 864.969 85.5C864.836 85.0333 864.602 84.65 864.269 84.35C863.936 84.0167 863.536 83.7667 863.069 83.6C862.636 83.4 862.186 83.2667 861.719 83.2C861.252 83.1 860.802 83.05 860.369 83.05C859.869 83.05 859.352 83.0833 858.819 83.15C858.319 83.2167 857.852 83.3667 857.419 83.6C857.019 83.8 856.669 84.1 856.369 84.5C856.102 84.8667 855.969 85.35 855.969 85.95C855.969 86.9167 856.469 87.6833 857.469 88.25C858.469 88.7833 860.319 89.3333 863.019 89.9C864.619 90.1667 866.186 90.5167 867.719 90.95C869.286 91.3833 870.669 91.9833 871.869 92.75C873.069 93.5167 874.036 94.5167 874.769 95.75C875.502 96.95 875.869 98.5 875.869 100.4Z" fill="white"/>
<path d="M63.5894 224.239C62.1594 224.239 61.0001 222.998 61.0001 221.467C61.0001 219.936 62.1594 218.695 63.5894 218.695C65.0194 218.695 66.1787 219.936 66.1787 221.467C66.1787 222.998 65.0194 224.239 63.5894 224.239Z" fill="white"/>
<path d="M63.5894 198.032C62.1594 198.032 61.0001 196.791 61.0001 195.26C61.0001 193.729 62.1594 192.488 63.5894 192.488C65.0194 192.488 66.1787 193.729 66.1787 195.26C66.1787 196.791 65.0194 198.032 63.5894 198.032Z" fill="white"/>
<path d="M63.5894 166.154C62.1771 166.154 61.0001 167.414 61.0001 168.926C61.0001 170.438 62.1771 171.698 63.5894 171.698C65.0018 171.698 66.1787 170.438 66.1787 168.926C66.1787 167.414 65.0018 166.154 63.5894 166.154Z" fill="white"/>
<path d="M63.5894 145.365C62.1594 145.365 61.0001 144.124 61.0001 142.593C61.0001 141.062 62.1594 139.821 63.5894 139.821C65.0194 139.821 66.1787 141.062 66.1787 142.593C66.1787 144.124 65.0194 145.365 63.5894 145.365Z" fill="white"/>
<path d="M63.5894 119.158C62.1594 119.158 61.0001 117.917 61.0001 116.386C61.0001 114.855 62.1594 113.614 63.5894 113.614C65.0194 113.614 66.1787 114.855 66.1787 116.386C66.1787 117.917 65.0194 119.158 63.5894 119.158Z" fill="white"/>
<path d="M63.5894 92.8251C62.1594 92.8251 61.0001 91.5841 61.0001 90.0532C61.0001 88.5223 62.1594 87.2812 63.5894 87.2812C65.0194 87.2812 66.1787 88.5223 66.1787 90.0532C66.1787 91.5841 65.0194 92.8251 63.5894 92.8251Z" fill="white"/>
<path d="M63.5894 66.4921C62.1594 66.4921 61.0001 65.2511 61.0001 63.7202C61.0001 62.1893 62.1594 60.9482 63.5894 60.9482C65.0194 60.9482 66.1787 62.1893 66.1787 63.7202C66.1787 65.2511 65.0194 66.4921 63.5894 66.4921Z" fill="white"/>
<path d="M63.5894 40.2845C62.1594 40.2845 61.0001 39.0435 61.0001 37.5126C61.0001 35.9817 62.1594 34.7407 63.5894 34.7407C65.0194 34.7407 66.1787 35.9817 66.1787 37.5126C66.1787 39.0435 65.0194 40.2845 63.5894 40.2845Z" fill="white"/>
<path d="M63.5894 13.9515C62.1594 13.9515 61.0001 12.7105 61.0001 11.1796C61.0001 9.64873 62.1594 8.40771 63.5894 8.40771C65.0194 8.40771 66.1787 9.64873 66.1787 11.1796C66.1787 12.7105 65.0194 13.9515 63.5894 13.9515Z" fill="white"/>
<path opacity="0.5" d="M1370.48 71.9438L1394.13 46.6187C1384.13 52.4145 1375.89 61.2342 1370.48 71.9438Z" fill="white"/>
<path opacity="0.5" d="M1409.79 40.445L1364.71 88.7014C1364.36 90.3393 1364.12 91.9772 1363.89 93.6152L1414.38 39.563C1412.73 39.815 1411.2 40.067 1409.79 40.445Z" fill="white"/>
<path opacity="0.5" d="M1424.62 39.0591L1363.41 104.577C1363.41 105.837 1363.53 107.097 1363.65 108.357L1428.15 39.3111C1426.97 39.1851 1425.79 39.1851 1424.62 39.0591Z" fill="white"/>
<path opacity="0.5" d="M1436.5 40.9492L1365.06 117.429C1365.3 118.437 1365.53 119.571 1365.89 120.579L1439.45 41.8312C1438.51 41.4532 1437.56 41.2012 1436.5 40.9492Z" fill="white"/>
<path opacity="0.5" d="M1446.63 44.729L1368.59 128.264C1368.95 129.146 1369.42 130.154 1369.89 131.036L1449.22 46.115C1448.27 45.611 1447.45 45.107 1446.63 44.729Z" fill="white"/>
<path opacity="0.5" d="M1455.34 49.8945L1373.54 137.462C1374.01 138.218 1374.6 139.1 1375.07 139.856L1457.45 51.6585C1456.75 51.0285 1456.04 50.5245 1455.34 49.8945Z" fill="white"/>
<path opacity="0.5" d="M1462.87 56.4463L1379.66 145.525C1380.25 146.155 1380.95 146.911 1381.54 147.541L1464.75 58.4622C1464.16 57.8322 1463.46 57.0763 1462.87 56.4463Z" fill="white"/>
<path opacity="0.5" d="M1469.22 64.1323L1386.84 152.329C1387.54 152.959 1388.25 153.463 1389.07 153.967L1470.87 66.4003C1470.28 65.7703 1469.81 65.0143 1469.22 64.1323Z" fill="white"/>
<path opacity="0.5" d="M1474.52 73.0781L1395.19 157.999C1396.02 158.503 1396.84 158.881 1397.78 159.385L1475.81 75.85C1475.34 74.9681 1474.87 74.0861 1474.52 73.0781Z" fill="white"/>
<path opacity="0.5" d="M1478.4 83.5356L1404.84 162.283C1405.79 162.661 1406.84 162.913 1407.79 163.165L1479.23 86.6855C1478.99 85.5516 1478.76 84.5436 1478.4 83.5356Z" fill="white"/>
<path opacity="0.5" d="M1480.76 95.6309L1416.26 164.677C1417.44 164.803 1418.61 164.929 1419.79 164.929L1480.99 99.4107C1480.88 98.1508 1480.88 96.8908 1480.76 95.6309Z" fill="white"/>
<path opacity="0.5" d="M1479.7 115.286C1480.05 113.648 1480.29 112.011 1480.52 110.373L1430.03 164.425C1431.56 164.173 1433.09 163.921 1434.62 163.543L1479.7 115.286Z" fill="white"/>
<path opacity="0.5" d="M1473.93 132.044L1450.27 157.369C1460.28 151.573 1468.52 142.754 1473.93 132.044Z" fill="white"/>
<path opacity="0.5" d="M261.908 152.799L226.363 114.748C241.429 123.442 253.787 136.671 261.908 152.799Z" fill="white"/>
<path opacity="0.5" d="M202.942 105.425L270.5 177.746C270.971 180.14 271.441 182.66 271.677 185.18L195.998 104.165C198.47 104.543 200.706 104.921 202.942 105.425Z" fill="white"/>
<path opacity="0.5" d="M180.697 103.409L272.5 201.685C272.383 203.575 272.265 205.465 272.147 207.355L175.401 103.787C177.049 103.661 178.932 103.535 180.697 103.409Z" fill="white"/>
<path opacity="0.5" d="M162.808 106.181L269.911 220.837C269.558 222.475 269.087 223.987 268.617 225.625L158.217 107.441C159.865 107.063 161.277 106.559 162.808 106.181Z" fill="white"/>
<path opacity="0.5" d="M147.625 111.851L264.615 237.091C264.026 238.476 263.438 239.862 262.732 241.248L143.741 113.867C145.153 113.111 146.33 112.481 147.625 111.851Z" fill="white"/>
<path opacity="0.5" d="M134.678 119.788L257.318 251.076C256.494 252.336 255.788 253.47 254.964 254.604L131.383 122.308C132.442 121.426 133.501 120.544 134.678 119.788Z" fill="white"/>
<path opacity="0.5" d="M123.379 129.49L248.137 263.045C247.196 264.053 246.254 265.061 245.313 266.069L120.555 132.514C121.378 131.506 122.32 130.498 123.379 129.49Z" fill="white"/>
<path opacity="0.5" d="M113.728 141.082L237.309 273.377C236.25 274.259 235.073 275.141 234.014 275.897L111.374 144.609C112.08 143.475 112.904 142.216 113.728 141.082Z" fill="white"/>
<path opacity="0.5" d="M105.843 154.563L224.833 281.819C223.539 282.575 222.244 283.205 220.95 283.835L103.959 158.595C104.548 157.209 105.254 155.823 105.843 154.563Z" fill="white"/>
<path opacity="0.5" d="M99.9578 170.061L210.357 288.245C208.945 288.749 207.415 289.127 205.884 289.631L98.7809 174.974C99.0163 173.21 99.4871 171.572 99.9578 170.061Z" fill="white"/>
<path opacity="0.5" d="M96.5447 188.204L193.291 291.773C191.526 292.025 189.76 292.151 187.995 292.151L96.1916 193.874C96.1916 191.984 96.3093 190.094 96.5447 188.204Z" fill="white"/>
<path opacity="0.5" d="M98.0745 217.813C97.6037 215.419 97.1329 212.899 96.8975 210.379L172.576 291.394C170.222 291.016 167.986 290.638 165.632 290.134L98.0745 217.813Z" fill="white"/>
<path d="M358.419 147.381C362.303 147.381 365.48 143.979 365.48 139.821C365.48 135.664 362.303 132.262 358.419 132.262C354.535 132.262 351.357 135.664 351.357 139.821C351.357 143.979 354.535 147.381 358.419 147.381ZM358.419 134.782C361.008 134.782 363.127 137.05 363.127 139.821C363.127 142.593 361.008 144.861 358.419 144.861C355.829 144.861 353.711 142.593 353.711 139.821C353.711 137.05 355.829 134.782 358.419 134.782Z" fill="white"/>
<path opacity="0.5" d="M175.283 52.6321C179.167 52.6321 182.345 49.2303 182.345 45.0724C182.345 40.9146 179.167 37.5127 175.283 37.5127C171.399 37.5127 168.222 40.9146 168.222 45.0724C168.222 49.2303 171.399 52.6321 175.283 52.6321ZM175.283 40.0326C177.873 40.0326 179.991 42.3005 179.991 45.0724C179.991 47.8443 177.873 50.1122 175.283 50.1122C172.694 50.1122 170.576 47.8443 170.576 45.0724C170.576 42.3005 172.694 40.0326 175.283 40.0326Z" fill="white"/>
<path opacity="0.5" d="M1361.06 15.1195C1357.18 15.1195 1354 11.7176 1354 7.55975C1354 3.40189 1357.18 0 1361.06 0C1364.94 0 1368.12 3.40189 1368.12 7.55975C1368.12 11.7176 1364.94 15.1195 1361.06 15.1195ZM1361.06 2.51992C1358.47 2.51992 1356.35 4.78784 1356.35 7.55975C1356.35 10.3317 1358.47 12.5996 1361.06 12.5996C1363.65 12.5996 1365.77 10.3317 1365.77 7.55975C1365.77 4.78784 1363.65 2.51992 1361.06 2.51992Z" fill="white"/>
<path d="M1201.23 39.8151L1215.12 31.1214C1215.35 30.9954 1215.71 30.9954 1215.94 31.1214C1216.18 31.2473 1216.29 31.4993 1216.29 31.8773L1216.41 49.1388C1216.41 49.7687 1215.71 50.1467 1215.23 49.8947L1201.23 41.327C1200.99 41.201 1200.88 40.949 1200.88 40.571C1200.88 40.1931 1200.99 39.9411 1201.23 39.8151ZM1214.76 33.3893L1203.23 40.571L1214.88 47.6268L1214.76 33.3893Z" fill="white"/>
<path opacity="0.5" d="M1319.98 152.455H1308.22C1307.51 152.455 1307.04 151.951 1307.04 151.195V138.596C1307.04 137.84 1307.51 137.336 1308.22 137.336H1319.98C1320.69 137.336 1321.16 137.84 1321.16 138.596V151.195C1321.16 151.951 1320.57 152.455 1319.98 152.455ZM1309.39 149.936H1318.81V139.856H1309.39V149.936Z" fill="white"/>
<path opacity="0.5" d="M425.623 27.4334C425.859 27.6854 426.094 27.8114 426.447 27.8114H438.217C438.57 27.8114 438.805 27.6854 439.04 27.4334C439.276 27.1814 439.394 26.9294 439.394 26.5514V13.9519C439.394 13.1959 438.923 12.6919 438.217 12.6919H426.447C426.094 12.6919 425.859 12.8179 425.623 13.0699C425.388 13.3219 425.27 13.5739 425.27 13.9519V26.5514C425.27 26.9294 425.388 27.3074 425.623 27.4334ZM437.04 25.2915H427.624V15.2118H437.04V25.2915Z" fill="white"/>
<defs>
<linearGradient id="paint0_linear" x1="-12.5" y1="75.4595" x2="1507.32" y2="141.465" gradientUnits="userSpaceOnUse">
<stop stop-color="#C70C0C"/>
<stop offset="1" stop-color="#5F0404"/>
</linearGradient>
</defs>
</svg>
