<svg width="706" height="563" viewBox="0 0 706 563" fill="none" xmlns="http://www.w3.org/2000/svg">
<g opacity="0.4">
<path opacity="0.2" d="M487.868 82.0223C486.091 79.9445 486.091 76.62 487.868 74.646L542.426 10.8566C544.203 8.77876 547.047 8.77876 548.735 10.8566C550.512 12.9344 550.512 16.259 548.735 18.2329L494.177 82.0223C492.4 83.9963 489.645 83.9963 487.868 82.0223Z" fill="url(#paint0_linear)"/>
<path opacity="0.2" d="M455.08 355.569C453.303 353.491 453.303 350.167 455.08 348.193L533.452 256.56C535.229 254.482 538.072 254.482 539.76 256.56C541.537 258.638 541.537 261.963 539.76 263.937L461.389 355.569C459.7 357.647 456.857 357.647 455.08 355.569Z" fill="url(#paint1_linear)"/>
<path opacity="0.5" d="M612.712 288.455C610.935 286.377 610.935 283.053 612.712 281.079L691.083 189.446C692.86 187.369 695.704 187.369 697.392 189.446C699.169 191.524 699.169 194.849 697.392 196.823L619.021 288.455C617.243 290.429 614.4 290.429 612.712 288.455Z" fill="url(#paint2_linear)"/>
<path opacity="0.2" d="M48.2049 361.802C46.4278 359.724 46.4278 356.4 48.2049 354.426L126.577 262.794C128.354 260.716 131.197 260.716 132.885 262.794C134.662 264.872 134.662 268.196 132.885 270.17L54.5137 361.802C52.7366 363.88 49.9821 363.88 48.2049 361.802Z" fill="url(#paint3_linear)"/>
<path opacity="0.5" d="M2.79899 270.897C-0.932995 266.534 -0.932995 259.365 2.79899 255.002L21.7255 232.873C25.4574 228.51 31.5886 228.51 35.3205 232.873C39.0525 237.236 39.0525 244.405 35.3205 248.768L16.3941 270.897C12.5732 275.261 6.53097 275.261 2.79899 270.897Z" fill="url(#paint4_linear)"/>
<path opacity="0.5" d="M282.875 65.0881C279.143 60.7246 279.143 53.5561 282.875 49.1927L322.15 3.27258C325.882 -1.09086 332.013 -1.09086 335.745 3.27258C339.477 7.63603 339.477 14.8045 335.745 19.168L296.47 65.0881C292.738 69.4515 286.607 69.4515 282.875 65.0881Z" fill="url(#paint5_linear)"/>
<path opacity="0.2" d="M667.803 273.702C664.071 269.339 664.071 262.17 667.803 257.807L689.04 232.977C692.772 228.613 698.903 228.613 702.635 232.977C706.367 237.34 706.367 244.509 702.635 248.872L681.398 273.702C677.577 278.066 671.535 278.066 667.803 273.702Z" fill="url(#paint6_linear)"/>
<path opacity="0.5" d="M370.221 559.197C366.489 554.833 366.489 547.665 370.221 543.301L426.289 477.745C430.021 473.382 436.153 473.382 439.885 477.745C443.616 482.109 443.616 489.277 439.885 493.641L383.816 559.197C380.084 563.56 374.042 563.56 370.221 559.197Z" fill="url(#paint7_linear)"/>
<path opacity="0.5" d="M12.2182 435.877C13.1067 436.916 14.6173 436.916 15.5059 435.877L100.719 336.245C101.608 335.206 101.608 333.44 100.719 332.401C99.8309 331.362 98.3203 331.362 97.4317 332.401L12.2182 432.137C11.3296 433.176 11.3296 434.838 12.2182 435.877Z" fill="url(#paint8_linear)"/>
<path opacity="0.2" d="M8.6635 214.796C9.55206 215.835 11.0626 215.835 11.9512 214.796L75.3949 140.617C76.2834 139.578 76.2834 137.812 75.3949 136.773C74.5063 135.734 72.9957 135.734 72.1072 136.773L8.6635 210.952C7.77493 211.991 7.77493 213.653 8.6635 214.796Z" fill="url(#paint9_linear)"/>
<path opacity="0.2" d="M241.468 149.76C242.357 150.799 243.867 150.799 244.756 149.76L335.212 43.9983C336.101 42.9594 336.101 41.1932 335.212 40.1543C334.323 39.1154 332.813 39.1154 331.924 40.1543L241.468 145.916C240.58 146.955 240.58 148.721 241.468 149.76Z" fill="url(#paint10_linear)"/>
<path opacity="0.5" d="M374.131 395.567C375.02 396.606 376.53 396.606 377.419 395.567L467.875 289.806C468.764 288.767 468.764 287 467.875 285.962C466.986 284.923 465.476 284.923 464.587 285.962L374.131 391.723C373.243 392.866 373.243 394.528 374.131 395.567Z" fill="url(#paint11_linear)"/>
<path opacity="0.5" d="M608.091 59.3738C608.98 60.4127 610.49 60.4127 611.379 59.3738L646.3 18.5444C647.188 17.5055 647.188 15.7394 646.3 14.7005C645.411 13.6615 643.9 13.6615 643.012 14.7005L608.091 55.5298C607.203 56.5688 607.203 58.231 608.091 59.3738Z" fill="url(#paint12_linear)"/>
<path opacity="0.2" d="M412.695 548.911C413.583 549.95 415.094 549.95 415.982 548.911L494.798 456.759C495.687 455.721 495.687 453.954 494.798 452.915C493.91 451.877 492.399 451.877 491.511 452.915L412.695 545.067C411.806 546.106 411.806 547.872 412.695 548.911Z" fill="url(#paint13_linear)"/>
<path d="M51.5807 43.6864C51.5807 44.6215 50.9587 45.4526 50.0701 45.4526C49.1816 45.4526 48.5596 44.7254 48.5596 43.6864C48.5596 42.7514 49.1816 41.9203 50.0701 41.9203C50.9587 41.9203 51.5807 42.7514 51.5807 43.6864Z" fill="white"/>
<path d="M65.5319 43.6864C65.5319 44.6215 64.9099 45.4526 64.0213 45.4526C63.1327 45.4526 62.5107 44.7254 62.5107 43.6864C62.5107 42.7514 63.1327 41.9203 64.0213 41.9203C64.9099 41.9203 65.5319 42.7514 65.5319 43.6864Z" fill="white"/>
<path d="M79.4821 43.6864C79.4821 44.6215 78.8601 45.4526 77.9715 45.4526C77.0829 45.4526 76.4609 44.7254 76.4609 43.6864C76.4609 42.7514 77.0829 41.9203 77.9715 41.9203C78.8601 41.9203 79.4821 42.7514 79.4821 43.6864Z" fill="white"/>
<path d="M93.4323 43.6864C93.4323 44.6215 92.8103 45.4526 91.9217 45.4526C91.0331 45.4526 90.4111 44.7254 90.4111 43.6864C90.4111 42.7514 91.0331 41.9203 91.9217 41.9203C92.8103 41.9203 93.4323 42.7514 93.4323 43.6864Z" fill="white"/>
<path d="M107.471 43.6864C107.471 44.6215 106.849 45.4526 105.961 45.4526C105.072 45.4526 104.45 44.7254 104.45 43.6864C104.45 42.7514 105.072 41.9203 105.961 41.9203C106.849 41.9203 107.471 42.7514 107.471 43.6864Z" fill="white"/>
<path d="M121.422 43.6864C121.422 44.6215 120.8 45.4526 119.912 45.4526C119.023 45.4526 118.401 44.7254 118.401 43.6864C118.401 42.7514 119.023 41.9203 119.912 41.9203C120.8 41.9203 121.422 42.7514 121.422 43.6864Z" fill="white"/>
<path d="M135.373 43.6864C135.373 44.6215 134.751 45.4526 133.862 45.4526C132.974 45.4526 132.352 44.7254 132.352 43.6864C132.352 42.7514 132.974 41.9203 133.862 41.9203C134.751 41.9203 135.373 42.7514 135.373 43.6864Z" fill="white"/>
<path d="M149.323 43.6864C149.323 44.6215 148.701 45.4526 147.812 45.4526C147.013 45.4526 146.302 44.7254 146.302 43.6864C146.302 42.7514 146.924 41.9203 147.812 41.9203C148.701 42.0242 149.323 42.7514 149.323 43.6864Z" fill="white"/>
<path d="M163.274 43.6864C163.274 44.6215 162.652 45.4526 161.764 45.4526C160.875 45.4526 160.253 44.7254 160.253 43.6864C160.253 42.7514 160.875 41.9203 161.764 41.9203C162.652 41.9203 163.274 42.7514 163.274 43.6864Z" fill="white"/>
<path d="M177.313 43.6864C177.313 44.6215 176.691 45.4526 175.803 45.4526C174.914 45.4526 174.292 44.7254 174.292 43.6864C174.292 42.7514 174.914 41.9203 175.803 41.9203C176.691 41.9203 177.313 42.7514 177.313 43.6864Z" fill="white"/>
<path d="M191.264 43.6864C191.264 44.6215 190.642 45.4526 189.754 45.4526C188.865 45.4526 188.243 44.7254 188.243 43.6864C188.243 42.7514 188.865 41.9203 189.754 41.9203C190.642 41.9203 191.264 42.7514 191.264 43.6864Z" fill="white"/>
<path d="M51.5807 58.4395C51.5807 59.3745 50.9587 60.2056 50.0701 60.2056C49.1816 60.2056 48.5596 59.4784 48.5596 58.4395C48.5596 57.5045 49.1816 56.6733 50.0701 56.6733C50.9587 56.6733 51.5807 57.4006 51.5807 58.4395Z" fill="white"/>
<path d="M65.5319 58.4395C65.5319 59.3745 64.9099 60.2056 64.0213 60.2056C63.1327 60.2056 62.5107 59.4784 62.5107 58.4395C62.5107 57.5045 63.1327 56.6733 64.0213 56.6733C64.9099 56.6733 65.5319 57.4006 65.5319 58.4395Z" fill="white"/>
<path d="M79.4821 58.4395C79.4821 59.3745 78.8601 60.2056 77.9715 60.2056C77.0829 60.2056 76.4609 59.4784 76.4609 58.4395C76.4609 57.5045 77.0829 56.6733 77.9715 56.6733C78.8601 56.6733 79.4821 57.4006 79.4821 58.4395Z" fill="white"/>
<path d="M93.4323 58.4395C93.4323 59.3745 92.8103 60.2056 91.9217 60.2056C91.0331 60.2056 90.4111 59.4784 90.4111 58.4395C90.4111 57.5045 91.0331 56.6733 91.9217 56.6733C92.8103 56.6733 93.4323 57.4006 93.4323 58.4395Z" fill="white"/>
<path d="M107.471 58.4395C107.471 59.3745 106.849 60.2056 105.961 60.2056C105.072 60.2056 104.45 59.4784 104.45 58.4395C104.45 57.5045 105.072 56.6733 105.961 56.6733C106.849 56.6733 107.471 57.4006 107.471 58.4395Z" fill="white"/>
<path d="M121.422 58.4395C121.422 59.3745 120.8 60.2056 119.912 60.2056C119.023 60.2056 118.401 59.4784 118.401 58.4395C118.401 57.5045 119.023 56.6733 119.912 56.6733C120.8 56.6733 121.422 57.4006 121.422 58.4395Z" fill="white"/>
<path d="M135.373 58.4395C135.373 59.3745 134.751 60.2056 133.862 60.2056C132.974 60.2056 132.352 59.4784 132.352 58.4395C132.352 57.5045 132.974 56.6733 133.862 56.6733C134.751 56.6733 135.373 57.4006 135.373 58.4395Z" fill="white"/>
<path d="M149.323 58.4395C149.323 59.3745 148.701 60.2056 147.812 60.2056C147.013 60.2056 146.302 59.4784 146.302 58.4395C146.302 57.5045 146.924 56.6733 147.812 56.6733C148.701 56.6733 149.323 57.4006 149.323 58.4395Z" fill="white"/>
<path d="M163.274 58.4395C163.274 59.3745 162.652 60.2056 161.764 60.2056C160.875 60.2056 160.253 59.4784 160.253 58.4395C160.253 57.5045 160.875 56.6733 161.764 56.6733C162.652 56.6733 163.274 57.4006 163.274 58.4395Z" fill="white"/>
<path d="M177.313 58.4395C177.313 59.3745 176.691 60.2056 175.803 60.2056C174.914 60.2056 174.292 59.4784 174.292 58.4395C174.292 57.5045 174.914 56.6733 175.803 56.6733C176.691 56.6733 177.313 57.4006 177.313 58.4395Z" fill="white"/>
<path d="M191.264 58.4395C191.264 59.3745 190.642 60.2056 189.754 60.2056C188.865 60.2056 188.243 59.4784 188.243 58.4395C188.243 57.5045 188.865 56.6733 189.754 56.6733C190.642 56.6733 191.264 57.4006 191.264 58.4395Z" fill="white"/>
<path d="M51.5807 73.0878C51.5807 74.0228 50.9587 74.854 50.0701 74.854C49.1816 74.854 48.5596 74.1267 48.5596 73.0878C48.5596 72.1528 49.1816 71.3217 50.0701 71.3217C50.9587 71.3217 51.5807 72.0489 51.5807 73.0878Z" fill="white"/>
<path d="M65.5319 73.0878C65.5319 74.0228 64.9099 74.854 64.0213 74.854C63.1327 74.854 62.5107 74.1267 62.5107 73.0878C62.5107 72.1528 63.1327 71.3217 64.0213 71.3217C64.9099 71.3217 65.5319 72.0489 65.5319 73.0878Z" fill="white"/>
<path d="M79.4821 73.0878C79.4821 74.0228 78.8601 74.854 77.9715 74.854C77.0829 74.854 76.4609 74.1267 76.4609 73.0878C76.4609 72.1528 77.0829 71.3217 77.9715 71.3217C78.8601 71.3217 79.4821 72.0489 79.4821 73.0878Z" fill="white"/>
<path d="M93.4323 73.0878C93.4323 74.0228 92.8103 74.854 91.9217 74.854C91.0331 74.854 90.4111 74.1267 90.4111 73.0878C90.4111 72.1528 91.0331 71.3217 91.9217 71.3217C92.8103 71.3217 93.4323 72.0489 93.4323 73.0878Z" fill="white"/>
<path d="M107.471 73.0878C107.471 74.0228 106.849 74.854 105.961 74.854C105.072 74.854 104.45 74.1267 104.45 73.0878C104.45 72.1528 105.072 71.3217 105.961 71.3217C106.849 71.3217 107.471 72.0489 107.471 73.0878Z" fill="white"/>
<path d="M121.422 73.0878C121.422 74.0228 120.8 74.854 119.912 74.854C119.023 74.854 118.401 74.1267 118.401 73.0878C118.401 72.1528 119.023 71.3217 119.912 71.3217C120.8 71.3217 121.422 72.0489 121.422 73.0878Z" fill="white"/>
<path d="M135.373 73.0878C135.373 74.0228 134.751 74.854 133.862 74.854C132.974 74.854 132.352 74.1267 132.352 73.0878C132.352 72.1528 132.974 71.3217 133.862 71.3217C134.751 71.3217 135.373 72.0489 135.373 73.0878Z" fill="white"/>
<path d="M149.323 73.0878C149.323 74.0228 148.701 74.854 147.812 74.854C147.013 74.854 146.302 74.1267 146.302 73.0878C146.302 72.1528 146.924 71.3217 147.812 71.3217C148.701 71.3217 149.323 72.0489 149.323 73.0878Z" fill="white"/>
<path d="M163.274 73.0878C163.274 74.0228 162.652 74.854 161.764 74.854C160.875 74.854 160.253 74.1267 160.253 73.0878C160.253 72.1528 160.875 71.3217 161.764 71.3217C162.652 71.3217 163.274 72.0489 163.274 73.0878Z" fill="white"/>
<path d="M177.313 73.0878C177.313 74.0228 176.691 74.854 175.803 74.854C174.914 74.854 174.292 74.1267 174.292 73.0878C174.292 72.1528 174.914 71.3217 175.803 71.3217C176.691 71.3217 177.313 72.0489 177.313 73.0878Z" fill="white"/>
<path d="M191.264 73.0878C191.264 74.0228 190.642 74.854 189.754 74.854C188.865 74.854 188.243 74.1267 188.243 73.0878C188.243 72.1528 188.865 71.3217 189.754 71.3217C190.642 71.3217 191.264 72.0489 191.264 73.0878Z" fill="white"/>
<path d="M50.0701 89.5027C50.9044 89.5027 51.5807 88.7119 51.5807 87.7365C51.5807 86.7611 50.9044 85.9703 50.0701 85.9703C49.2359 85.9703 48.5596 86.7611 48.5596 87.7365C48.5596 88.7119 49.2359 89.5027 50.0701 89.5027Z" fill="white"/>
<path d="M64.0213 89.5027C64.8556 89.5027 65.5319 88.7119 65.5319 87.7365C65.5319 86.7611 64.8556 85.9703 64.0213 85.9703C63.187 85.9703 62.5107 86.7611 62.5107 87.7365C62.5107 88.7119 63.187 89.5027 64.0213 89.5027Z" fill="white"/>
<path d="M79.4821 87.7365C79.4821 88.6715 78.8601 89.5027 77.9715 89.5027C77.0829 89.5027 76.4609 88.7754 76.4609 87.7365C76.4609 86.6976 77.0829 85.9703 77.9715 85.9703C78.8601 85.9703 79.4821 86.8015 79.4821 87.7365Z" fill="white"/>
<path d="M92.0106 89.5027C92.8448 89.5027 93.5211 88.7119 93.5211 87.7365C93.5211 86.7611 92.8448 85.9703 92.0106 85.9703C91.1763 85.9703 90.5 86.7611 90.5 87.7365C90.5 88.7119 91.1763 89.5027 92.0106 89.5027Z" fill="white"/>
<path d="M105.961 89.5027C106.795 89.5027 107.471 88.7119 107.471 87.7365C107.471 86.7611 106.795 85.9703 105.961 85.9703C105.127 85.9703 104.45 86.7611 104.45 87.7365C104.45 88.7119 105.127 89.5027 105.961 89.5027Z" fill="white"/>
<path d="M119.912 89.5027C120.746 89.5027 121.422 88.7119 121.422 87.7365C121.422 86.7611 120.746 85.9703 119.912 85.9703C119.078 85.9703 118.401 86.7611 118.401 87.7365C118.401 88.7119 119.078 89.5027 119.912 89.5027Z" fill="white"/>
<path d="M133.862 89.5027C134.696 89.5027 135.373 88.7119 135.373 87.7365C135.373 86.7611 134.696 85.9703 133.862 85.9703C133.028 85.9703 132.352 86.7611 132.352 87.7365C132.352 88.7119 133.028 89.5027 133.862 89.5027Z" fill="white"/>
<path d="M147.901 89.5027C148.735 89.5027 149.412 88.7119 149.412 87.7365C149.412 86.7611 148.735 85.9703 147.901 85.9703C147.067 85.9703 146.391 86.7611 146.391 87.7365C146.391 88.7119 147.067 89.5027 147.901 89.5027Z" fill="white"/>
<path d="M161.852 89.5027C162.687 89.5027 163.363 88.7119 163.363 87.7365C163.363 86.7611 162.687 85.9703 161.852 85.9703C161.018 85.9703 160.342 86.7611 160.342 87.7365C160.342 88.7119 161.018 89.5027 161.852 89.5027Z" fill="white"/>
<path d="M177.313 87.7365C177.313 88.6715 176.691 89.5027 175.803 89.5027C174.914 89.5027 174.292 88.7754 174.292 87.7365C174.292 86.6976 174.914 85.9703 175.803 85.9703C176.691 85.9703 177.313 86.8015 177.313 87.7365Z" fill="white"/>
<path d="M191.264 87.7365C191.264 88.6715 190.642 89.5027 189.754 89.5027C188.865 89.5027 188.243 88.7754 188.243 87.7365C188.243 86.6976 188.865 85.9703 189.754 85.9703C190.642 85.9703 191.264 86.8015 191.264 87.7365Z" fill="white"/>
<path d="M50.0701 104.152C50.9044 104.152 51.5807 103.361 51.5807 102.386C51.5807 101.41 50.9044 100.62 50.0701 100.62C49.2359 100.62 48.5596 101.41 48.5596 102.386C48.5596 103.361 49.2359 104.152 50.0701 104.152Z" fill="white"/>
<path d="M64.0213 104.152C64.8556 104.152 65.5319 103.361 65.5319 102.386C65.5319 101.41 64.8556 100.62 64.0213 100.62C63.187 100.62 62.5107 101.41 62.5107 102.386C62.5107 103.361 63.187 104.152 64.0213 104.152Z" fill="white"/>
<path d="M79.4821 102.386C79.4821 103.321 78.8601 104.152 77.9715 104.152C77.0829 104.152 76.4609 103.425 76.4609 102.386C76.4609 101.347 77.0829 100.62 77.9715 100.62C78.8601 100.62 79.4821 101.451 79.4821 102.386Z" fill="white"/>
<path d="M92.0106 104.152C92.8448 104.152 93.5211 103.361 93.5211 102.386C93.5211 101.41 92.8448 100.62 92.0106 100.62C91.1763 100.62 90.5 101.41 90.5 102.386C90.5 103.361 91.1763 104.152 92.0106 104.152Z" fill="white"/>
<path d="M105.961 104.152C106.795 104.152 107.471 103.361 107.471 102.386C107.471 101.41 106.795 100.62 105.961 100.62C105.127 100.62 104.45 101.41 104.45 102.386C104.45 103.361 105.127 104.152 105.961 104.152Z" fill="white"/>
<path d="M119.912 104.152C120.746 104.152 121.422 103.361 121.422 102.386C121.422 101.41 120.746 100.62 119.912 100.62C119.078 100.62 118.401 101.41 118.401 102.386C118.401 103.361 119.078 104.152 119.912 104.152Z" fill="white"/>
<path d="M133.862 104.152C134.696 104.152 135.373 103.361 135.373 102.386C135.373 101.41 134.696 100.62 133.862 100.62C133.028 100.62 132.352 101.41 132.352 102.386C132.352 103.361 133.028 104.152 133.862 104.152Z" fill="white"/>
<path d="M147.901 104.152C148.735 104.152 149.412 103.361 149.412 102.386C149.412 101.41 148.735 100.62 147.901 100.62C147.067 100.62 146.391 101.41 146.391 102.386C146.391 103.361 147.067 104.152 147.901 104.152Z" fill="white"/>
<path d="M161.852 104.152C162.687 104.152 163.363 103.361 163.363 102.386C163.363 101.41 162.687 100.62 161.852 100.62C161.018 100.62 160.342 101.41 160.342 102.386C160.342 103.361 161.018 104.152 161.852 104.152Z" fill="white"/>
<path d="M177.313 102.386C177.313 103.321 176.691 104.152 175.803 104.152C174.914 104.152 174.292 103.425 174.292 102.386C174.292 101.347 174.914 100.62 175.803 100.62C176.691 100.62 177.313 101.451 177.313 102.386Z" fill="white"/>
<path d="M191.264 102.386C191.264 103.321 190.642 104.152 189.754 104.152C188.865 104.152 188.243 103.425 188.243 102.386C188.243 101.347 188.865 100.62 189.754 100.62C190.642 100.62 191.264 101.451 191.264 102.386Z" fill="white"/>
<path d="M50.0701 118.8C50.9044 118.8 51.5807 118.009 51.5807 117.034C51.5807 116.058 50.9044 115.268 50.0701 115.268C49.2359 115.268 48.5596 116.058 48.5596 117.034C48.5596 118.009 49.2359 118.8 50.0701 118.8Z" fill="white"/>
<path d="M64.0213 118.8C64.8556 118.8 65.5319 118.009 65.5319 117.034C65.5319 116.058 64.8556 115.268 64.0213 115.268C63.187 115.268 62.5107 116.058 62.5107 117.034C62.5107 118.009 63.187 118.8 64.0213 118.8Z" fill="white"/>
<path d="M79.4821 117.034C79.4821 117.969 78.8601 118.8 77.9715 118.8C77.0829 118.8 76.4609 118.073 76.4609 117.034C76.4609 115.995 77.0829 115.268 77.9715 115.268C78.8601 115.268 79.4821 116.099 79.4821 117.034Z" fill="white"/>
<path d="M92.0106 118.8C92.8448 118.8 93.5211 118.009 93.5211 117.034C93.5211 116.058 92.8448 115.268 92.0106 115.268C91.1763 115.268 90.5 116.058 90.5 117.034C90.5 118.009 91.1763 118.8 92.0106 118.8Z" fill="white"/>
<path d="M105.961 118.8C106.795 118.8 107.471 118.009 107.471 117.034C107.471 116.058 106.795 115.268 105.961 115.268C105.127 115.268 104.45 116.058 104.45 117.034C104.45 118.009 105.127 118.8 105.961 118.8Z" fill="white"/>
<path d="M119.912 118.8C120.746 118.8 121.422 118.009 121.422 117.034C121.422 116.058 120.746 115.268 119.912 115.268C119.078 115.268 118.401 116.058 118.401 117.034C118.401 118.009 119.078 118.8 119.912 118.8Z" fill="white"/>
<path d="M133.862 118.8C134.696 118.8 135.373 118.009 135.373 117.034C135.373 116.058 134.696 115.268 133.862 115.268C133.028 115.268 132.352 116.058 132.352 117.034C132.352 118.009 133.028 118.8 133.862 118.8Z" fill="white"/>
<path d="M147.901 118.8C148.735 118.8 149.412 118.009 149.412 117.034C149.412 116.058 148.735 115.268 147.901 115.268C147.067 115.268 146.391 116.058 146.391 117.034C146.391 118.009 147.067 118.8 147.901 118.8Z" fill="white"/>
<path d="M161.852 118.8C162.687 118.8 163.363 118.009 163.363 117.034C163.363 116.058 162.687 115.268 161.852 115.268C161.018 115.268 160.342 116.058 160.342 117.034C160.342 118.009 161.018 118.8 161.852 118.8Z" fill="white"/>
<path d="M177.313 117.034C177.313 117.969 176.691 118.8 175.803 118.8C174.914 118.8 174.292 118.073 174.292 117.034C174.292 115.995 174.914 115.268 175.803 115.268C176.691 115.268 177.313 116.099 177.313 117.034Z" fill="white"/>
<path d="M191.264 117.034C191.264 117.969 190.642 118.8 189.754 118.8C188.865 118.8 188.243 118.073 188.243 117.034C188.243 115.995 188.865 115.268 189.754 115.268C190.642 115.268 191.264 116.099 191.264 117.034Z" fill="white"/>
<path d="M668.869 516.808C669.949 516.808 670.824 515.785 670.824 514.523C670.824 513.26 669.949 512.237 668.869 512.237C667.789 512.237 666.914 513.26 666.914 514.523C666.914 515.785 667.789 516.808 668.869 516.808Z" fill="white"/>
<path d="M668.869 495.095C669.949 495.095 670.824 494.072 670.824 492.809C670.824 491.547 669.949 490.524 668.869 490.524C667.789 490.524 666.914 491.547 666.914 492.809C666.914 494.072 667.789 495.095 668.869 495.095Z" fill="white"/>
<path d="M668.869 473.486C669.949 473.486 670.824 472.462 670.824 471.2C670.824 469.938 669.949 468.914 668.869 468.914C667.789 468.914 666.914 469.938 666.914 471.2C666.914 472.462 667.789 473.486 668.869 473.486Z" fill="white"/>
<path d="M668.869 451.772C669.949 451.772 670.824 450.749 670.824 449.486C670.824 448.224 669.949 447.201 668.869 447.201C667.789 447.201 666.914 448.224 666.914 449.486C666.914 450.749 667.789 451.772 668.869 451.772Z" fill="white"/>
<path d="M668.869 425.488C669.935 425.488 670.824 426.527 670.824 427.773C670.824 429.02 669.935 430.059 668.869 430.059C667.803 430.059 666.914 429.02 666.914 427.773C666.914 426.527 667.803 425.488 668.869 425.488Z" fill="white"/>
<path d="M668.869 408.449C669.949 408.449 670.824 407.426 670.824 406.164C670.824 404.901 669.949 403.878 668.869 403.878C667.789 403.878 666.914 404.901 666.914 406.164C666.914 407.426 667.789 408.449 668.869 408.449Z" fill="white"/>
<path d="M668.869 386.736C669.949 386.736 670.824 385.713 670.824 384.45C670.824 383.188 669.949 382.165 668.869 382.165C667.789 382.165 666.914 383.188 666.914 384.45C666.914 385.713 667.789 386.736 668.869 386.736Z" fill="white"/>
<path d="M668.869 365.127C669.949 365.127 670.824 364.103 670.824 362.841C670.824 361.579 669.949 360.555 668.869 360.555C667.789 360.555 666.914 361.579 666.914 362.841C666.914 364.103 667.789 365.127 668.869 365.127Z" fill="white"/>
<path d="M668.869 343.413C669.949 343.413 670.824 342.39 670.824 341.128C670.824 339.865 669.949 338.842 668.869 338.842C667.789 338.842 666.914 339.865 666.914 341.128C666.914 342.39 667.789 343.413 668.869 343.413Z" fill="white"/>
<path d="M668.869 321.7C669.949 321.7 670.824 320.677 670.824 319.415C670.824 318.152 669.949 317.129 668.869 317.129C667.789 317.129 666.914 318.152 666.914 319.415C666.914 320.677 667.789 321.7 668.869 321.7Z" fill="white"/>
<path d="M668.869 300.091C669.949 300.091 670.824 299.067 670.824 297.805C670.824 296.543 669.949 295.519 668.869 295.519C667.789 295.519 666.914 296.543 666.914 297.805C666.914 299.067 667.789 300.091 668.869 300.091Z" fill="white"/>
<path d="M337.433 516.808C338.513 516.808 339.388 515.785 339.388 514.523C339.388 513.26 338.513 512.237 337.433 512.237C336.354 512.237 335.479 513.26 335.479 514.523C335.479 515.785 336.354 516.808 337.433 516.808Z" fill="white"/>
<path d="M318.862 516.808C319.942 516.808 320.817 515.785 320.817 514.523C320.817 513.26 319.942 512.237 318.862 512.237C317.782 512.237 316.907 513.26 316.907 514.523C316.907 515.785 317.782 516.808 318.862 516.808Z" fill="white"/>
<path d="M300.291 516.808C301.37 516.808 302.246 515.785 302.246 514.523C302.246 513.26 301.37 512.237 300.291 512.237C299.211 512.237 298.336 513.26 298.336 514.523C298.336 515.785 299.211 516.808 300.291 516.808Z" fill="white"/>
<path d="M281.808 516.808C282.888 516.808 283.763 515.785 283.763 514.523C283.763 513.26 282.888 512.237 281.808 512.237C280.729 512.237 279.854 513.26 279.854 514.523C279.854 515.785 280.729 516.808 281.808 516.808Z" fill="white"/>
<path d="M263.237 516.808C264.317 516.808 265.192 515.785 265.192 514.523C265.192 513.26 264.317 512.237 263.237 512.237C262.157 512.237 261.282 513.26 261.282 514.523C261.282 515.785 262.157 516.808 263.237 516.808Z" fill="white"/>
<path d="M244.667 516.808C245.746 516.808 246.622 515.785 246.622 514.523C246.622 513.26 245.746 512.237 244.667 512.237C243.587 512.237 242.712 513.26 242.712 514.523C242.712 515.785 243.587 516.808 244.667 516.808Z" fill="white"/>
<path d="M226.184 516.808C227.264 516.808 228.139 515.785 228.139 514.523C228.139 513.26 227.264 512.237 226.184 512.237C225.105 512.237 224.229 513.26 224.229 514.523C224.229 515.785 225.105 516.808 226.184 516.808Z" fill="white"/>
<path d="M207.613 516.808C208.693 516.808 209.568 515.785 209.568 514.523C209.568 513.26 208.693 512.237 207.613 512.237C206.533 512.237 205.658 513.26 205.658 514.523C205.658 515.785 206.533 516.808 207.613 516.808Z" fill="white"/>
<path d="M189.042 516.808C190.121 516.808 190.997 515.785 190.997 514.523C190.997 513.26 190.121 512.237 189.042 512.237C187.962 512.237 187.087 513.26 187.087 514.523C187.087 515.785 187.962 516.808 189.042 516.808Z" fill="white"/>
<path d="M170.56 516.808C171.64 516.808 172.515 515.785 172.515 514.523C172.515 513.26 171.64 512.237 170.56 512.237C169.481 512.237 168.605 513.26 168.605 514.523C168.605 515.785 169.481 516.808 170.56 516.808Z" fill="white"/>
<path d="M151.989 516.808C153.069 516.808 153.944 515.785 153.944 514.523C153.944 513.26 153.069 512.237 151.989 512.237C150.909 512.237 150.034 513.26 150.034 514.523C150.034 515.785 150.909 516.808 151.989 516.808Z" fill="white"/>
<g opacity="0.5">
<path opacity="0.5" d="M41.9844 441.383L59.8446 420.501C52.2918 425.28 46.0718 432.552 41.9844 441.383Z" fill="white"/>
<path opacity="0.5" d="M71.6629 415.412L37.6308 455.202C37.3642 456.553 37.1865 457.903 37.0088 459.254L75.1283 414.684C73.9732 414.788 72.818 415.1 71.6629 415.412Z" fill="white"/>
<path opacity="0.5" d="M82.9477 414.268L36.7422 468.292C36.7422 469.331 36.831 470.369 36.9199 471.408L85.6134 414.476C84.7248 414.372 83.8362 414.268 82.9477 414.268Z" fill="white"/>
<path opacity="0.5" d="M91.9223 415.722L37.9863 478.784C38.164 479.615 38.3418 480.55 38.6083 481.381L94.1438 416.449C93.4329 416.241 92.6332 415.93 91.9223 415.722Z" fill="white"/>
<path opacity="0.5" d="M99.4755 418.839L40.5635 487.719C40.83 488.446 41.1855 489.277 41.5409 490.004L101.43 419.981C100.808 419.566 100.186 419.254 99.4755 418.839Z" fill="white"/>
<path opacity="0.5" d="M106.05 423.202L44.3838 495.407C44.7392 496.03 45.1835 496.757 45.5389 497.381L107.739 424.657C107.205 424.137 106.672 423.618 106.05 423.202Z" fill="white"/>
<path opacity="0.5" d="M111.738 428.604L48.916 502.056C49.3603 502.575 49.8934 503.199 50.3377 503.718L113.159 430.267C112.715 429.643 112.271 429.124 111.738 428.604Z" fill="white"/>
<path opacity="0.5" d="M116.624 434.942L54.4248 507.666C54.9579 508.186 55.4911 508.601 56.1131 509.017L117.868 436.812C117.424 436.189 116.98 435.565 116.624 434.942Z" fill="white"/>
<path opacity="0.5" d="M120.534 442.318L60.6445 512.341C61.2665 512.757 61.8885 513.068 62.5994 513.484L121.511 444.604C121.156 443.773 120.889 443.045 120.534 442.318Z" fill="white"/>
<path opacity="0.5" d="M123.555 450.837L68.0195 515.77C68.7304 516.081 69.5301 516.289 70.2409 516.497L124.177 453.435C123.999 452.603 123.733 451.772 123.555 450.837Z" fill="white"/>
<path opacity="0.5" d="M125.244 460.811L76.5508 517.743C77.4393 517.847 78.3279 517.951 79.2165 517.951L125.422 463.928C125.422 462.889 125.333 461.85 125.244 460.811Z" fill="white"/>
<path opacity="0.5" d="M124.533 477.122C124.799 475.771 124.977 474.421 125.155 473.07L87.0352 517.64C88.1903 517.432 89.3454 517.224 90.5006 516.912L124.533 477.122Z" fill="white"/>
<path opacity="0.5" d="M120.09 490.939L102.229 511.822C109.782 507.043 116.002 499.77 120.09 490.939Z" fill="white"/>
</g>
<g opacity="0.5">
<path opacity="0.5" d="M590.408 95.1125L608.268 74.2303C600.716 79.0094 594.496 86.2818 590.408 95.1125Z" fill="white"/>
<path opacity="0.5" d="M619.998 69.1409L585.966 108.931C585.699 110.282 585.521 111.633 585.344 112.983L623.463 68.4137C622.308 68.5176 621.153 68.8293 619.998 69.1409Z" fill="white"/>
<path opacity="0.5" d="M631.284 67.9978L585.078 122.021C585.078 123.06 585.167 124.099 585.256 125.138L633.949 68.2056C633.061 68.1017 632.172 67.9978 631.284 67.9978Z" fill="white"/>
<path opacity="0.5" d="M640.257 69.4513L586.321 132.513C586.499 133.345 586.677 134.28 586.943 135.111L642.479 70.1785C641.768 69.9707 641.057 69.6591 640.257 69.4513Z" fill="white"/>
<path opacity="0.5" d="M647.899 72.568L588.987 141.448C589.254 142.175 589.609 143.006 589.965 143.734L649.765 73.7108C649.143 73.2952 648.521 72.9836 647.899 72.568Z" fill="white"/>
<path opacity="0.5" d="M654.474 76.9315L592.719 149.136C593.074 149.76 593.519 150.487 593.874 151.11L656.074 78.386C655.541 77.8665 655.007 77.3471 654.474 76.9315Z" fill="white"/>
<path opacity="0.5" d="M660.162 82.3337L597.34 155.785C597.784 156.305 598.317 156.928 598.762 157.447L661.583 83.996C661.05 83.3727 660.606 82.8532 660.162 82.3337Z" fill="white"/>
<path opacity="0.5" d="M664.959 88.6713L602.76 161.395C603.293 161.915 603.826 162.33 604.448 162.746L666.203 90.5413C665.759 89.918 665.404 89.2946 664.959 88.6713Z" fill="white"/>
<path opacity="0.5" d="M668.958 96.0474L609.068 166.07C609.69 166.486 610.312 166.798 611.023 167.213L669.935 98.333C669.58 97.5018 669.224 96.7746 668.958 96.0474Z" fill="white"/>
<path opacity="0.5" d="M671.89 104.567L616.354 169.499C617.065 169.81 617.865 170.018 618.576 170.226L672.512 107.164C672.334 106.333 672.156 105.502 671.89 104.567Z" fill="white"/>
<path opacity="0.5" d="M673.667 114.54L624.974 171.473C625.862 171.577 626.751 171.68 627.639 171.68L673.845 117.657C673.756 116.618 673.756 115.579 673.667 114.54Z" fill="white"/>
<path opacity="0.5" d="M672.868 130.851C673.134 129.501 673.312 128.15 673.49 126.799L635.37 171.369C636.525 171.161 637.68 170.953 638.836 170.642L672.868 130.851Z" fill="white"/>
<path opacity="0.5" d="M668.514 144.669L650.653 165.551C658.206 160.772 664.426 153.499 668.514 144.669Z" fill="white"/>
</g>
<g opacity="0.5">
<path opacity="0.5" d="M519.146 414.475L545.98 383.1C534.607 390.373 525.277 401.281 519.146 414.475Z" fill="white"/>
<path opacity="0.5" d="M563.574 375.516L512.57 435.15C512.215 437.124 511.859 439.201 511.682 441.279L568.816 374.477C567.039 374.685 565.351 375.1 563.574 375.516Z" fill="white"/>
<path opacity="0.5" d="M580.457 373.854L511.148 454.89C511.237 456.448 511.326 458.006 511.415 459.565L584.455 374.166C583.122 373.958 581.79 373.854 580.457 373.854Z" fill="white"/>
<path opacity="0.5" d="M593.963 376.036L513.104 470.577C513.37 471.928 513.725 473.174 514.081 474.525L597.429 377.075C596.185 376.763 595.118 376.451 593.963 376.036Z" fill="white"/>
<path opacity="0.5" d="M605.336 380.71L517.102 483.979C517.546 485.121 517.99 486.264 518.523 487.407L608.357 382.373C607.291 381.853 606.314 381.334 605.336 380.71Z" fill="white"/>
<path opacity="0.5" d="M615.2 387.256L522.611 495.511C523.233 496.55 523.766 497.485 524.388 498.42L617.688 389.333C616.888 388.606 616.089 387.983 615.2 387.256Z" fill="white"/>
<path opacity="0.5" d="M623.73 395.359L529.542 505.485C530.253 506.316 530.964 507.147 531.675 507.978L625.863 397.853C625.152 397.022 624.441 396.191 623.73 395.359Z" fill="white"/>
<path opacity="0.5" d="M631.016 404.917L537.717 514.003C538.517 514.731 539.405 515.458 540.205 516.081L632.793 407.826C632.171 406.787 631.638 405.852 631.016 404.917Z" fill="white"/>
<path opacity="0.5" d="M636.97 415.93L547.136 520.964C548.113 521.588 549.091 522.107 550.068 522.627L638.392 419.358C637.947 418.216 637.414 417.073 636.97 415.93Z" fill="white"/>
<path opacity="0.5" d="M641.412 428.708L558.064 526.159C559.131 526.574 560.286 526.886 561.441 527.302L642.301 432.76C642.034 431.306 641.768 430.059 641.412 428.708Z" fill="white"/>
<path opacity="0.5" d="M643.989 443.773L570.949 529.171C572.282 529.379 573.615 529.483 574.948 529.483L644.256 448.448C644.256 446.889 644.167 445.331 643.989 443.773Z" fill="white"/>
<path opacity="0.5" d="M642.834 468.187C643.19 466.213 643.545 464.135 643.723 462.058L586.588 528.86C588.365 528.548 590.053 528.237 591.83 527.821L642.834 468.187Z" fill="white"/>
<path opacity="0.5" d="M636.347 488.861L609.513 520.133C620.798 512.964 630.127 502.056 636.347 488.861Z" fill="white"/>
</g>
<g opacity="0.5">
<path opacity="0.5" d="M174.293 201.706L188.599 184.979C182.557 188.823 177.581 194.641 174.293 201.706Z" fill="white"/>
<path opacity="0.5" d="M198.017 180.928L170.827 212.719C170.649 213.758 170.472 214.901 170.383 215.939L200.861 180.305C199.883 180.512 198.906 180.72 198.017 180.928Z" fill="white"/>
<path opacity="0.5" d="M206.992 179.992L170.027 223.211C170.027 224.042 170.116 224.873 170.205 225.704L209.213 180.096C208.413 180.096 207.703 180.096 206.992 179.992Z" fill="white"/>
<path opacity="0.5" d="M214.189 181.239L171.094 231.626C171.271 232.354 171.449 233.081 171.627 233.704L216.055 181.758C215.433 181.551 214.811 181.447 214.189 181.239Z" fill="white"/>
<path opacity="0.5" d="M220.321 183.733L173.227 238.795C173.493 239.418 173.671 240.042 173.937 240.561L221.831 184.564C221.298 184.252 220.854 184.044 220.321 183.733Z" fill="white"/>
<path opacity="0.5" d="M225.563 187.161L176.158 244.924C176.425 245.444 176.78 245.963 177.136 246.483L226.895 188.304C226.451 187.888 226.007 187.576 225.563 187.161Z" fill="white"/>
<path opacity="0.5" d="M230.095 191.524L179.802 250.327C180.157 250.742 180.513 251.262 180.957 251.677L231.25 192.875C230.894 192.355 230.45 191.94 230.095 191.524Z" fill="white"/>
<path opacity="0.5" d="M234.004 196.615L184.244 254.794C184.688 255.21 185.133 255.522 185.577 255.937L234.981 198.173C234.626 197.654 234.27 197.134 234.004 196.615Z" fill="white"/>
<path opacity="0.5" d="M237.114 202.537L189.221 258.43C189.754 258.742 190.198 259.054 190.731 259.262L237.825 204.199C237.648 203.68 237.381 203.056 237.114 202.537Z" fill="white"/>
<path opacity="0.5" d="M239.513 209.29L195.085 261.236C195.707 261.443 196.24 261.651 196.862 261.859L240.046 211.368C239.869 210.744 239.691 210.017 239.513 209.29Z" fill="white"/>
<path opacity="0.5" d="M240.935 217.289L201.927 262.898C202.638 263.002 203.348 263.002 204.059 263.106L241.024 219.887C241.024 218.952 240.935 218.12 240.935 217.289Z" fill="white"/>
<path opacity="0.5" d="M240.313 230.38C240.491 229.341 240.668 228.198 240.757 227.159L210.279 262.794C211.257 262.69 212.145 262.482 213.034 262.274L240.313 230.38Z" fill="white"/>
<path opacity="0.5" d="M236.759 241.392L222.453 258.119C228.495 254.275 233.471 248.457 236.759 241.392Z" fill="white"/>
</g>
<g opacity="0.5">
<path opacity="0.5" d="M193.575 457.902C190.642 457.902 188.243 455.097 188.243 451.668C188.243 448.24 190.642 445.435 193.575 445.435C196.507 445.435 198.906 448.24 198.906 451.668C198.906 455.097 196.507 457.902 193.575 457.902ZM193.575 447.513C191.62 447.513 190.02 449.383 190.02 451.668C190.02 453.954 191.62 455.824 193.575 455.824C195.529 455.824 197.129 453.954 197.129 451.668C197.129 449.383 195.529 447.513 193.575 447.513Z" fill="white"/>
</g>
<g opacity="0.5">
<path opacity="0.5" d="M505.728 234.535C502.796 234.535 500.396 231.73 500.396 228.302C500.396 224.873 502.796 222.068 505.728 222.068C508.66 222.068 511.059 224.873 511.059 228.302C511.059 231.73 508.66 234.535 505.728 234.535ZM505.728 224.146C503.773 224.146 502.174 226.016 502.174 228.302C502.174 230.587 503.773 232.457 505.728 232.457C507.683 232.457 509.282 230.587 509.282 228.302C509.282 226.016 507.683 224.146 505.728 224.146Z" fill="white"/>
</g>
<path d="M446.283 410.112C443.35 410.112 440.951 407.307 440.951 403.879C440.951 400.45 443.35 397.645 446.283 397.645C449.215 397.645 451.614 400.45 451.614 403.879C451.614 407.307 449.215 410.112 446.283 410.112ZM446.283 399.723C444.328 399.723 442.728 401.593 442.728 403.879C442.728 406.164 444.328 408.034 446.283 408.034C448.237 408.034 449.837 406.164 449.837 403.879C449.837 401.593 448.237 399.723 446.283 399.723Z" fill="white"/>
<g opacity="0.5">
<path opacity="0.5" d="M584.543 331.881C581.611 331.881 579.212 329.076 579.212 325.648C579.212 322.22 581.611 319.415 584.543 319.415C587.476 319.415 589.875 322.22 589.875 325.648C589.875 329.076 587.476 331.881 584.543 331.881ZM584.543 321.492C582.588 321.492 580.989 323.362 580.989 325.648C580.989 327.934 582.588 329.804 584.543 329.804C586.498 329.804 588.098 327.934 588.098 325.648C588.098 323.362 586.498 321.492 584.543 321.492Z" fill="white"/>
</g>
<g opacity="0.5">
<path opacity="0.5" d="M583.3 48.2578C580.368 48.2578 577.969 45.4527 577.969 42.0243C577.969 38.5958 580.368 35.7908 583.3 35.7908C586.232 35.7908 588.632 38.5958 588.632 42.0243C588.632 45.4527 586.232 48.2578 583.3 48.2578ZM583.3 37.8686C581.345 37.8686 579.746 39.7386 579.746 42.0243C579.746 44.3099 581.345 46.1799 583.3 46.1799C585.255 46.1799 586.854 44.3099 586.854 42.0243C586.854 39.7386 585.255 37.8686 583.3 37.8686Z" fill="white"/>
</g>
<g opacity="0.5">
<path opacity="0.5" d="M140.704 232.042C137.772 232.042 135.373 229.237 135.373 225.808C135.373 222.38 137.772 219.575 140.704 219.575C143.637 219.575 146.036 222.38 146.036 225.808C146.036 229.237 143.637 232.042 140.704 232.042ZM140.704 221.653C138.75 221.653 137.15 223.523 137.15 225.808C137.15 228.094 138.75 229.964 140.704 229.964C142.659 229.964 144.259 228.094 144.259 225.808C144.259 223.419 142.659 221.653 140.704 221.653Z" fill="white"/>
</g>
<g opacity="0.5">
<path opacity="0.5" d="M346.319 84.9312C343.386 84.9312 340.987 82.1262 340.987 78.6977C340.987 75.2693 343.386 72.4642 346.319 72.4642C349.251 72.4642 351.65 75.2693 351.65 78.6977C351.65 82.1262 349.251 84.9312 346.319 84.9312ZM346.319 74.5421C344.364 74.5421 342.764 76.4121 342.764 78.6977C342.764 80.9833 344.364 82.8534 346.319 82.8534C348.274 82.8534 349.873 80.9833 349.873 78.6977C349.873 76.4121 348.274 74.5421 346.319 74.5421Z" fill="white"/>
</g>
<path d="M245.466 394.217L235.692 402.632C235.514 402.736 235.337 402.84 235.07 402.736C234.892 402.632 234.715 402.424 234.715 402.216L233.382 388.087C233.293 387.568 233.826 387.152 234.182 387.36L245.289 393.074C245.466 393.178 245.644 393.386 245.644 393.593C245.733 393.801 245.644 394.009 245.466 394.217ZM235.781 400.762L243.956 393.801L234.715 389.022L235.781 400.762Z" fill="white"/>
<path d="M109.871 402.32L101.163 392.45C100.985 392.243 100.985 392.035 100.985 391.827C101.074 391.619 101.163 391.412 101.43 391.308L113.159 387.464C113.603 387.36 113.958 387.775 113.87 388.295L110.848 402.009C110.76 402.216 110.671 402.424 110.404 402.528C110.226 402.632 110.049 402.528 109.871 402.32ZM102.762 392.347L109.96 400.554L112.448 389.126L102.762 392.347Z" fill="white"/>
<path d="M82.5925 179.992H70.508C70.3303 179.992 70.0637 179.888 69.9748 179.68C69.886 179.473 69.886 179.161 69.9748 178.953L76.0171 166.694C76.1948 166.278 76.8168 166.278 77.0834 166.694L83.1256 178.953C83.2145 179.161 83.2145 179.473 83.1256 179.68C83.0368 179.888 82.8591 179.992 82.5925 179.992ZM71.4854 178.642H81.6151L76.5502 168.46L71.4854 178.642Z" fill="white"/>
<g opacity="0.5">
<path opacity="0.5" d="M493.555 512.445L486.268 501.121C486.179 500.913 486.091 500.705 486.179 500.394C486.268 500.186 486.446 499.978 486.624 499.978L498.708 498.316C499.152 498.212 499.508 498.835 499.33 499.251L494.532 512.341C494.443 512.549 494.265 512.757 494.088 512.757C493.821 512.757 493.643 512.653 493.555 512.445ZM487.779 501.225L493.821 510.679L497.82 499.77L487.779 501.225Z" fill="white"/>
</g>
<path d="M462.633 68.6205L473.118 61.4519C473.296 61.3481 473.562 61.3481 473.74 61.4519C473.918 61.5558 474.006 61.7636 474.006 62.0753L474.095 76.3084C474.095 76.8279 473.562 77.1396 473.207 76.9318L462.633 69.8672C462.455 69.7633 462.366 69.5555 462.366 69.2438C462.366 68.9321 462.455 68.7243 462.633 68.6205ZM472.851 63.2181L464.143 69.1399L472.94 74.9578L472.851 63.2181Z" fill="white"/>
<path d="M321.261 183.836L311.31 175.733C311.132 175.629 311.043 175.317 311.043 175.109C311.043 174.902 311.221 174.694 311.398 174.59L322.417 168.564C322.772 168.356 323.305 168.772 323.216 169.291L322.15 183.421C322.15 183.628 321.972 183.836 321.795 183.94C321.617 183.94 321.439 183.94 321.261 183.836ZM312.82 175.213L321.084 181.966L321.972 170.226L312.82 175.213Z" fill="white"/>
<path d="M656.518 207.108L648.254 217.497C648.077 217.705 647.899 217.705 647.721 217.705C647.544 217.601 647.366 217.497 647.277 217.185L643.723 203.576C643.634 203.056 643.989 202.641 644.434 202.744L656.251 205.861C656.429 205.965 656.607 206.069 656.696 206.381C656.696 206.692 656.607 207.004 656.518 207.108ZM648.077 215.731L654.919 207.108L645.056 204.511L648.077 215.731Z" fill="white"/>
<path d="M223.607 42.0243L233.737 34.1286C233.915 34.0247 234.092 34.0247 234.359 34.1286C234.537 34.2325 234.714 34.4403 234.714 34.7519L235.425 48.7773C235.425 49.2967 234.981 49.7123 234.537 49.4006L223.607 43.1671C223.43 43.0633 223.252 42.8555 223.252 42.5438C223.341 42.336 223.43 42.1282 223.607 42.0243ZM233.47 35.8947L225.118 42.4399L234.181 47.6345L233.47 35.8947Z" fill="white"/>
<g opacity="0.5">
<path opacity="0.5" d="M552.2 161.499H543.314C542.781 161.499 542.426 161.084 542.426 160.46V150.071C542.426 149.448 542.781 149.032 543.314 149.032H552.2C552.733 149.032 553.089 149.448 553.089 150.071V160.46C553.089 160.98 552.733 161.499 552.2 161.499ZM544.203 159.422H551.311V151.11H544.203V159.422Z" fill="white"/>
</g>
<g opacity="0.5">
<path opacity="0.5" d="M47.0496 311.207C46.8718 311.415 46.6941 311.519 46.4276 311.519H37.5419C37.2753 311.519 37.0976 311.415 36.9199 311.207C36.7422 310.999 36.6533 310.791 36.6533 310.48V300.091C36.6533 299.467 37.0087 299.052 37.5419 299.052H46.4276C46.6941 299.052 46.8718 299.156 47.0496 299.363C47.2273 299.571 47.3161 299.779 47.3161 300.091V310.48C47.3161 310.791 47.2273 310.999 47.0496 311.207ZM38.4305 309.441H45.539V301.13H38.4305V309.441Z" fill="white"/>
</g>
<path d="M378.485 502.056C378.307 502.264 378.13 502.368 377.863 502.368H368.977C368.711 502.368 368.533 502.264 368.355 502.056C368.178 501.848 368.089 501.64 368.089 501.329V490.939C368.089 490.316 368.444 489.901 368.977 489.901H377.863C378.13 489.901 378.307 490.004 378.485 490.212C378.663 490.42 378.752 490.628 378.752 490.939V501.329C378.752 501.64 378.663 501.848 378.485 502.056ZM369.866 500.29H376.975V491.978H369.866V500.29Z" fill="white"/>
<g opacity="0.5">
<path opacity="0.5" d="M395.546 311.207C395.368 311.415 395.19 311.519 394.924 311.519H386.038C385.771 311.519 385.594 311.415 385.416 311.207C385.238 310.999 385.149 310.791 385.149 310.48V300.091C385.149 299.467 385.505 299.052 386.038 299.052H394.924C395.19 299.052 395.368 299.156 395.546 299.363C395.723 299.571 395.812 299.779 395.812 300.091V310.48C395.812 310.791 395.723 310.999 395.546 311.207ZM386.927 309.441H394.035V301.13H386.927V309.441Z" fill="white"/>
</g>
</g>
<defs>
<linearGradient id="paint0_linear" x1="487.852" y1="81.9728" x2="558.136" y2="21.8595" gradientUnits="userSpaceOnUse">
<stop stop-color="white" stop-opacity="0"/>
<stop offset="1" stop-color="white"/>
</linearGradient>
<linearGradient id="paint1_linear" x1="455.094" y1="355.587" x2="552.946" y2="271.896" gradientUnits="userSpaceOnUse">
<stop stop-color="white" stop-opacity="0"/>
<stop offset="1" stop-color="white"/>
</linearGradient>
<linearGradient id="paint2_linear" x1="612.67" y1="288.408" x2="710.521" y2="204.717" gradientUnits="userSpaceOnUse">
<stop stop-color="white" stop-opacity="0"/>
<stop offset="1" stop-color="white"/>
</linearGradient>
<linearGradient id="paint3_linear" x1="48.1918" y1="361.85" x2="146.043" y2="278.159" gradientUnits="userSpaceOnUse">
<stop stop-color="white" stop-opacity="0"/>
<stop offset="1" stop-color="white"/>
</linearGradient>
<linearGradient id="paint4_linear" x1="2.77028" y1="270.893" x2="40.348" y2="238.753" gradientUnits="userSpaceOnUse">
<stop stop-color="white" stop-opacity="0"/>
<stop offset="1" stop-color="white"/>
</linearGradient>
<linearGradient id="paint5_linear" x1="282.858" y1="65.0903" x2="343.961" y2="12.8298" gradientUnits="userSpaceOnUse">
<stop stop-color="white" stop-opacity="0"/>
<stop offset="1" stop-color="white"/>
</linearGradient>
<linearGradient id="paint6_linear" x1="667.773" y1="273.68" x2="708.035" y2="239.245" gradientUnits="userSpaceOnUse">
<stop stop-color="white" stop-opacity="0"/>
<stop offset="1" stop-color="white"/>
</linearGradient>
<linearGradient id="paint7_linear" x1="370.264" y1="559.213" x2="450.764" y2="490.364" gradientUnits="userSpaceOnUse">
<stop stop-color="white" stop-opacity="0"/>
<stop offset="1" stop-color="white"/>
</linearGradient>
<linearGradient id="paint8_linear" x1="12.1953" y1="435.903" x2="114.393" y2="348.495" gradientUnits="userSpaceOnUse">
<stop stop-color="white" stop-opacity="0"/>
<stop offset="1" stop-color="white"/>
</linearGradient>
<linearGradient id="paint9_linear" x1="8.66901" y1="214.745" x2="85.711" y2="148.852" gradientUnits="userSpaceOnUse">
<stop stop-color="white" stop-opacity="0"/>
<stop offset="1" stop-color="white"/>
</linearGradient>
<linearGradient id="paint10_linear" x1="241.447" y1="149.769" x2="349.723" y2="57.1619" gradientUnits="userSpaceOnUse">
<stop stop-color="white" stop-opacity="0"/>
<stop offset="1" stop-color="white"/>
</linearGradient>
<linearGradient id="paint11_linear" x1="374.112" y1="395.586" x2="482.389" y2="302.979" gradientUnits="userSpaceOnUse">
<stop stop-color="white" stop-opacity="0"/>
<stop offset="1" stop-color="white"/>
</linearGradient>
<linearGradient id="paint12_linear" x1="608.075" y1="59.3367" x2="652.196" y2="21.6009" gradientUnits="userSpaceOnUse">
<stop stop-color="white" stop-opacity="0"/>
<stop offset="1" stop-color="white"/>
</linearGradient>
<linearGradient id="paint13_linear" x1="412.683" y1="548.888" x2="507.532" y2="467.765" gradientUnits="userSpaceOnUse">
<stop stop-color="white" stop-opacity="0"/>
<stop offset="1" stop-color="white"/>
</linearGradient>
</defs>
</svg>
