<svg width="570" height="563" viewBox="0 0 570 563" fill="none" xmlns="http://www.w3.org/2000/svg">
<g opacity="0.4">
<path opacity="0.2" d="M351.868 82.0224C350.091 79.9445 350.091 76.62 351.868 74.6461L406.426 10.8567C408.203 8.77882 411.047 8.77882 412.735 10.8567C414.512 12.9345 414.512 16.259 412.735 18.233L358.177 82.0224C356.4 83.9963 353.645 83.9963 351.868 82.0224Z" fill="url(#paint0_linear)"/>
<path opacity="0.2" d="M319.08 355.569C317.303 353.491 317.303 350.167 319.08 348.193L397.452 256.56C399.229 254.482 402.072 254.482 403.76 256.56C405.538 258.638 405.538 261.963 403.76 263.937L325.389 355.569C323.7 357.647 320.857 357.647 319.08 355.569Z" fill="url(#paint1_linear)"/>
<path opacity="0.5" d="M476.712 288.455C474.935 286.377 474.935 283.053 476.712 281.079L555.083 189.446C556.861 187.369 559.704 187.369 561.392 189.446C563.169 191.524 563.169 194.849 561.392 196.823L483.021 288.455C481.243 290.429 478.4 290.429 476.712 288.455Z" fill="url(#paint2_linear)"/>
<path opacity="0.5" d="M146.875 65.0881C143.143 60.7246 143.143 53.5561 146.875 49.1927L186.15 3.27258C189.882 -1.09086 196.013 -1.09086 199.745 3.27258C203.477 7.63603 203.477 14.8045 199.745 19.168L160.47 65.0881C156.738 69.4515 150.607 69.4515 146.875 65.0881Z" fill="url(#paint3_linear)"/>
<path opacity="0.2" d="M531.803 273.702C528.071 269.339 528.071 262.17 531.803 257.807L553.04 232.977C556.772 228.613 562.903 228.613 566.635 232.977C570.367 237.34 570.367 244.509 566.635 248.872L545.398 273.702C541.577 278.066 535.535 278.066 531.803 273.702Z" fill="url(#paint4_linear)"/>
<path opacity="0.5" d="M234.221 559.197C230.489 554.833 230.489 547.665 234.221 543.301L290.289 477.745C294.021 473.382 300.153 473.382 303.885 477.745C307.616 482.109 307.616 489.277 303.885 493.641L247.816 559.197C244.084 563.56 238.042 563.56 234.221 559.197Z" fill="url(#paint5_linear)"/>
<path opacity="0.2" d="M105.468 149.76C106.357 150.799 107.867 150.799 108.756 149.76L199.212 43.9984C200.101 42.9594 200.101 41.1933 199.212 40.1544C198.323 39.1155 196.813 39.1155 195.924 40.1544L105.468 145.916C104.58 146.955 104.58 148.721 105.468 149.76Z" fill="url(#paint6_linear)"/>
<path opacity="0.5" d="M238.131 395.567C239.02 396.606 240.53 396.606 241.419 395.567L331.875 289.806C332.764 288.767 332.764 287 331.875 285.962C330.986 284.923 329.476 284.923 328.587 285.962L238.131 391.723C237.243 392.866 237.243 394.528 238.131 395.567Z" fill="url(#paint7_linear)"/>
<path opacity="0.5" d="M472.091 59.3738C472.98 60.4127 474.49 60.4127 475.379 59.3738L510.3 18.5444C511.188 17.5055 511.188 15.7394 510.3 14.7005C509.411 13.6615 507.901 13.6615 507.012 14.7005L472.091 55.5298C471.203 56.5688 471.203 58.231 472.091 59.3738Z" fill="url(#paint8_linear)"/>
<path opacity="0.2" d="M276.695 548.911C277.583 549.95 279.094 549.95 279.982 548.911L358.798 456.759C359.687 455.721 359.687 453.954 358.798 452.915C357.91 451.877 356.399 451.877 355.511 452.915L276.695 545.067C275.806 546.106 275.806 547.872 276.695 548.911Z" fill="url(#paint9_linear)"/>
<path d="M13.3239 43.6864C13.3239 44.6214 12.7019 45.4525 11.8133 45.4525C11.0136 45.4525 10.3027 44.7253 10.3027 43.6864C10.3027 42.7514 10.9247 41.9202 11.8133 41.9202C12.7019 42.0241 13.3239 42.7514 13.3239 43.6864Z" fill="white"/>
<path d="M27.2741 43.6864C27.2741 44.6214 26.6521 45.4525 25.7635 45.4525C24.8749 45.4525 24.2529 44.7253 24.2529 43.6864C24.2529 42.7514 24.8749 41.9202 25.7635 41.9202C26.6521 41.9202 27.2741 42.7514 27.2741 43.6864Z" fill="white"/>
<path d="M41.3141 43.6864C41.3141 44.6214 40.6921 45.4525 39.8035 45.4525C38.915 45.4525 38.293 44.7253 38.293 43.6864C38.293 42.7514 38.915 41.9202 39.8035 41.9202C40.6921 41.9202 41.3141 42.7514 41.3141 43.6864Z" fill="white"/>
<path d="M55.2642 43.6864C55.2642 44.6214 54.6422 45.4525 53.7537 45.4525C52.8652 45.4525 52.2432 44.7253 52.2432 43.6864C52.2432 42.7514 52.8652 41.9202 53.7537 41.9202C54.6422 41.9202 55.2642 42.7514 55.2642 43.6864Z" fill="white"/>
<path d="M13.3239 58.4396C13.3239 59.3746 12.7019 60.2057 11.8133 60.2057C11.0136 60.2057 10.3027 59.4785 10.3027 58.4396C10.3027 57.5045 10.9247 56.6734 11.8133 56.6734C12.7019 56.6734 13.3239 57.4006 13.3239 58.4396Z" fill="white"/>
<path d="M27.2741 58.4396C27.2741 59.3746 26.6521 60.2057 25.7635 60.2057C24.8749 60.2057 24.2529 59.4785 24.2529 58.4396C24.2529 57.5045 24.8749 56.6734 25.7635 56.6734C26.6521 56.6734 27.2741 57.4006 27.2741 58.4396Z" fill="white"/>
<path d="M41.3141 58.4396C41.3141 59.3746 40.6921 60.2057 39.8035 60.2057C38.915 60.2057 38.293 59.4785 38.293 58.4396C38.293 57.5045 38.915 56.6734 39.8035 56.6734C40.6921 56.6734 41.3141 57.4006 41.3141 58.4396Z" fill="white"/>
<path d="M55.2642 58.4396C55.2642 59.3746 54.6422 60.2057 53.7537 60.2057C52.8652 60.2057 52.2432 59.4785 52.2432 58.4396C52.2432 57.5045 52.8652 56.6734 53.7537 56.6734C54.6422 56.6734 55.2642 57.4006 55.2642 58.4396Z" fill="white"/>
<path d="M13.3239 73.0878C13.3239 74.0228 12.7019 74.854 11.8133 74.854C11.0136 74.854 10.3027 74.1267 10.3027 73.0878C10.3027 72.1528 10.9247 71.3217 11.8133 71.3217C12.7019 71.3217 13.3239 72.0489 13.3239 73.0878Z" fill="white"/>
<path d="M27.2741 73.0878C27.2741 74.0228 26.6521 74.854 25.7635 74.854C24.8749 74.854 24.2529 74.1267 24.2529 73.0878C24.2529 72.1528 24.8749 71.3217 25.7635 71.3217C26.6521 71.3217 27.2741 72.0489 27.2741 73.0878Z" fill="white"/>
<path d="M41.3141 73.0878C41.3141 74.0228 40.6921 74.854 39.8035 74.854C38.915 74.854 38.293 74.1267 38.293 73.0878C38.293 72.1528 38.915 71.3217 39.8035 71.3217C40.6921 71.3217 41.3141 72.0489 41.3141 73.0878Z" fill="white"/>
<path d="M55.2642 73.0878C55.2642 74.0228 54.6422 74.854 53.7537 74.854C52.8652 74.854 52.2432 74.1267 52.2432 73.0878C52.2432 72.1528 52.8652 71.3217 53.7537 71.3217C54.6422 71.3217 55.2642 72.0489 55.2642 73.0878Z" fill="white"/>
<path d="M11.9022 89.5027C12.7364 89.5027 13.4127 88.712 13.4127 87.7366C13.4127 86.7611 12.7364 85.9704 11.9022 85.9704C11.0679 85.9704 10.3916 86.7611 10.3916 87.7366C10.3916 88.712 11.0679 89.5027 11.9022 89.5027Z" fill="white"/>
<path d="M25.8533 89.5027C26.6876 89.5027 27.3639 88.712 27.3639 87.7366C27.3639 86.7611 26.6876 85.9704 25.8533 85.9704C25.0191 85.9704 24.3428 86.7611 24.3428 87.7366C24.3428 88.712 25.0191 89.5027 25.8533 89.5027Z" fill="white"/>
<path d="M41.3141 87.7366C41.3141 88.6716 40.6921 89.5027 39.8035 89.5027C38.915 89.5027 38.293 88.7755 38.293 87.7366C38.293 86.6976 38.915 85.9704 39.8035 85.9704C40.6921 85.9704 41.3141 86.8015 41.3141 87.7366Z" fill="white"/>
<path d="M55.2642 87.7366C55.2642 88.6716 54.6422 89.5027 53.7537 89.5027C52.8652 89.5027 52.2432 88.7755 52.2432 87.7366C52.2432 86.6976 52.8652 85.9704 53.7537 85.9704C54.6422 85.9704 55.2642 86.8015 55.2642 87.7366Z" fill="white"/>
<path d="M11.9022 104.152C12.7364 104.152 13.4127 103.361 13.4127 102.386C13.4127 101.41 12.7364 100.62 11.9022 100.62C11.0679 100.62 10.3916 101.41 10.3916 102.386C10.3916 103.361 11.0679 104.152 11.9022 104.152Z" fill="white"/>
<path d="M25.8533 104.152C26.6876 104.152 27.3639 103.361 27.3639 102.386C27.3639 101.41 26.6876 100.62 25.8533 100.62C25.0191 100.62 24.3428 101.41 24.3428 102.386C24.3428 103.361 25.0191 104.152 25.8533 104.152Z" fill="white"/>
<path d="M41.3141 102.386C41.3141 103.321 40.6921 104.152 39.8035 104.152C38.915 104.152 38.293 103.425 38.293 102.386C38.293 101.347 38.915 100.62 39.8035 100.62C40.6921 100.62 41.3141 101.451 41.3141 102.386Z" fill="white"/>
<path d="M55.2642 102.386C55.2642 103.321 54.6422 104.152 53.7537 104.152C52.8652 104.152 52.2432 103.425 52.2432 102.386C52.2432 101.347 52.8652 100.62 53.7537 100.62C54.6422 100.62 55.2642 101.451 55.2642 102.386Z" fill="white"/>
<path d="M11.9022 118.8C12.7364 118.8 13.4127 118.009 13.4127 117.034C13.4127 116.058 12.7364 115.268 11.9022 115.268C11.0679 115.268 10.3916 116.058 10.3916 117.034C10.3916 118.009 11.0679 118.8 11.9022 118.8Z" fill="white"/>
<path d="M25.8533 118.8C26.6876 118.8 27.3639 118.009 27.3639 117.034C27.3639 116.058 26.6876 115.268 25.8533 115.268C25.0191 115.268 24.3428 116.058 24.3428 117.034C24.3428 118.009 25.0191 118.8 25.8533 118.8Z" fill="white"/>
<path d="M41.3141 117.034C41.3141 117.969 40.6921 118.8 39.8035 118.8C38.915 118.8 38.293 118.073 38.293 117.034C38.293 115.995 38.915 115.268 39.8035 115.268C40.6921 115.268 41.3141 116.099 41.3141 117.034Z" fill="white"/>
<path d="M55.2642 117.034C55.2642 117.969 54.6422 118.8 53.7537 118.8C52.8652 118.8 52.2432 118.073 52.2432 117.034C52.2432 115.995 52.8652 115.268 53.7537 115.268C54.6422 115.268 55.2642 116.099 55.2642 117.034Z" fill="white"/>
<path d="M532.869 516.808C533.949 516.808 534.824 515.785 534.824 514.523C534.824 513.26 533.949 512.237 532.869 512.237C531.789 512.237 530.914 513.26 530.914 514.523C530.914 515.785 531.789 516.808 532.869 516.808Z" fill="white"/>
<path d="M532.869 495.095C533.949 495.095 534.824 494.072 534.824 492.809C534.824 491.547 533.949 490.524 532.869 490.524C531.789 490.524 530.914 491.547 530.914 492.809C530.914 494.072 531.789 495.095 532.869 495.095Z" fill="white"/>
<path d="M532.869 473.486C533.949 473.486 534.824 472.462 534.824 471.2C534.824 469.938 533.949 468.914 532.869 468.914C531.789 468.914 530.914 469.938 530.914 471.2C530.914 472.462 531.789 473.486 532.869 473.486Z" fill="white"/>
<path d="M532.869 451.772C533.949 451.772 534.824 450.749 534.824 449.486C534.824 448.224 533.949 447.201 532.869 447.201C531.789 447.201 530.914 448.224 530.914 449.486C530.914 450.749 531.789 451.772 532.869 451.772Z" fill="white"/>
<path d="M532.869 425.488C533.935 425.488 534.824 426.527 534.824 427.773C534.824 429.02 533.935 430.059 532.869 430.059C531.803 430.059 530.914 429.02 530.914 427.773C530.914 426.527 531.803 425.488 532.869 425.488Z" fill="white"/>
<path d="M532.869 408.449C533.949 408.449 534.824 407.426 534.824 406.164C534.824 404.901 533.949 403.878 532.869 403.878C531.789 403.878 530.914 404.901 530.914 406.164C530.914 407.426 531.789 408.449 532.869 408.449Z" fill="white"/>
<path d="M532.869 386.736C533.949 386.736 534.824 385.713 534.824 384.45C534.824 383.188 533.949 382.165 532.869 382.165C531.789 382.165 530.914 383.188 530.914 384.45C530.914 385.713 531.789 386.736 532.869 386.736Z" fill="white"/>
<path d="M532.869 365.127C533.949 365.127 534.824 364.103 534.824 362.841C534.824 361.579 533.949 360.555 532.869 360.555C531.789 360.555 530.914 361.579 530.914 362.841C530.914 364.103 531.789 365.127 532.869 365.127Z" fill="white"/>
<path d="M532.869 343.413C533.949 343.413 534.824 342.39 534.824 341.128C534.824 339.865 533.949 338.842 532.869 338.842C531.789 338.842 530.914 339.865 530.914 341.128C530.914 342.39 531.789 343.413 532.869 343.413Z" fill="white"/>
<path d="M532.869 321.7C533.949 321.7 534.824 320.677 534.824 319.415C534.824 318.152 533.949 317.129 532.869 317.129C531.789 317.129 530.914 318.152 530.914 319.415C530.914 320.677 531.789 321.7 532.869 321.7Z" fill="white"/>
<path d="M532.869 300.091C533.949 300.091 534.824 299.067 534.824 297.805C534.824 296.543 533.949 295.519 532.869 295.519C531.789 295.519 530.914 296.543 530.914 297.805C530.914 299.067 531.789 300.091 532.869 300.091Z" fill="white"/>
<path d="M201.433 516.808C202.513 516.808 203.388 515.785 203.388 514.523C203.388 513.26 202.513 512.237 201.433 512.237C200.354 512.237 199.479 513.26 199.479 514.523C199.479 515.785 200.354 516.808 201.433 516.808Z" fill="white"/>
<path d="M182.862 516.808C183.942 516.808 184.817 515.785 184.817 514.523C184.817 513.26 183.942 512.237 182.862 512.237C181.782 512.237 180.907 513.26 180.907 514.523C180.907 515.785 181.782 516.808 182.862 516.808Z" fill="white"/>
<path d="M164.291 516.808C165.37 516.808 166.246 515.785 166.246 514.523C166.246 513.26 165.37 512.237 164.291 512.237C163.211 512.237 162.336 513.26 162.336 514.523C162.336 515.785 163.211 516.808 164.291 516.808Z" fill="white"/>
<path d="M145.809 516.808C146.889 516.808 147.764 515.785 147.764 514.523C147.764 513.26 146.889 512.237 145.809 512.237C144.73 512.237 143.854 513.26 143.854 514.523C143.854 515.785 144.73 516.808 145.809 516.808Z" fill="white"/>
<path d="M127.238 516.808C128.318 516.808 129.193 515.785 129.193 514.523C129.193 513.26 128.318 512.237 127.238 512.237C126.158 512.237 125.283 513.26 125.283 514.523C125.283 515.785 126.158 516.808 127.238 516.808Z" fill="white"/>
<path d="M108.667 516.808C109.746 516.808 110.622 515.785 110.622 514.523C110.622 513.26 109.746 512.237 108.667 512.237C107.587 512.237 106.712 513.26 106.712 514.523C106.712 515.785 107.587 516.808 108.667 516.808Z" fill="white"/>
<path d="M90.1843 516.808C91.264 516.808 92.1392 515.785 92.1392 514.523C92.1392 513.26 91.264 512.237 90.1843 512.237C89.1047 512.237 88.2295 513.26 88.2295 514.523C88.2295 515.785 89.1047 516.808 90.1843 516.808Z" fill="white"/>
<path d="M71.6141 516.808C72.6937 516.808 73.569 515.785 73.569 514.523C73.569 513.26 72.6937 512.237 71.6141 512.237C70.5344 512.237 69.6592 513.26 69.6592 514.523C69.6592 515.785 70.5344 516.808 71.6141 516.808Z" fill="white"/>
<path d="M53.0427 516.808C54.1224 516.808 54.9976 515.785 54.9976 514.523C54.9976 513.26 54.1224 512.237 53.0427 512.237C51.9631 512.237 51.0879 513.26 51.0879 514.523C51.0879 515.785 51.9631 516.808 53.0427 516.808Z" fill="white"/>
<path d="M34.5603 516.808C35.6399 516.808 36.5152 515.785 36.5152 514.523C36.5152 513.26 35.6399 512.237 34.5603 512.237C33.4807 512.237 32.6055 513.26 32.6055 514.523C32.6055 515.785 33.4807 516.808 34.5603 516.808Z" fill="white"/>
<path d="M15.9891 516.808C17.0687 516.808 17.944 515.785 17.944 514.523C17.944 513.26 17.0687 512.237 15.9891 512.237C14.9094 512.237 14.0342 513.26 14.0342 514.523C14.0342 515.785 14.9094 516.808 15.9891 516.808Z" fill="white"/>
<g opacity="0.5">
<path opacity="0.5" d="M454.408 95.1125L472.268 74.2303C464.716 79.0094 458.496 86.2818 454.408 95.1125Z" fill="white"/>
<path opacity="0.5" d="M483.998 69.1411L449.966 108.932C449.699 110.282 449.521 111.633 449.344 112.983L487.463 68.4138C486.308 68.5177 485.153 68.8294 483.998 69.1411Z" fill="white"/>
<path opacity="0.5" d="M495.284 67.9979L449.078 122.022C449.078 123.06 449.167 124.099 449.256 125.138L497.949 68.2057C497.061 68.1018 496.172 67.9979 495.284 67.9979Z" fill="white"/>
<path opacity="0.5" d="M504.257 69.4513L450.321 132.513C450.499 133.345 450.677 134.28 450.943 135.111L506.479 70.1785C505.768 69.9707 505.057 69.6591 504.257 69.4513Z" fill="white"/>
<path opacity="0.5" d="M511.898 72.5681L452.986 141.448C453.253 142.175 453.608 143.007 453.964 143.734L513.764 73.7109C513.142 73.2954 512.52 72.9837 511.898 72.5681Z" fill="white"/>
<path opacity="0.5" d="M518.474 76.9316L456.719 149.136C457.074 149.76 457.519 150.487 457.874 151.11L520.074 78.3861C519.541 77.8666 519.007 77.3471 518.474 76.9316Z" fill="white"/>
<path opacity="0.5" d="M524.161 82.3338L461.339 155.785C461.783 156.305 462.316 156.928 462.761 157.447L525.582 83.9961C525.049 83.3727 524.605 82.8533 524.161 82.3338Z" fill="white"/>
<path opacity="0.5" d="M528.959 88.6713L466.76 161.395C467.293 161.915 467.826 162.33 468.448 162.746L530.203 90.5414C529.759 89.918 529.404 89.2947 528.959 88.6713Z" fill="white"/>
<path opacity="0.5" d="M532.958 96.0475L473.068 166.07C473.69 166.486 474.312 166.798 475.023 167.213L533.935 98.3331C533.58 97.502 533.224 96.7747 532.958 96.0475Z" fill="white"/>
<path opacity="0.5" d="M535.89 104.567L480.354 169.499C481.065 169.81 481.865 170.018 482.576 170.226L536.512 107.164C536.334 106.333 536.157 105.502 535.89 104.567Z" fill="white"/>
<path opacity="0.5" d="M537.667 114.54L488.974 171.473C489.862 171.577 490.751 171.68 491.639 171.68L537.845 117.657C537.756 116.618 537.756 115.579 537.667 114.54Z" fill="white"/>
<path opacity="0.5" d="M536.868 130.851C537.134 129.501 537.312 128.15 537.49 126.799L499.37 171.369C500.525 171.161 501.68 170.953 502.836 170.642L536.868 130.851Z" fill="white"/>
<path opacity="0.5" d="M532.514 144.669L514.653 165.551C522.206 160.772 528.426 153.499 532.514 144.669Z" fill="white"/>
</g>
<g opacity="0.5">
<path opacity="0.5" d="M383.146 414.475L409.98 383.1C398.607 390.373 389.277 401.281 383.146 414.475Z" fill="white"/>
<path opacity="0.5" d="M427.574 375.516L376.57 435.15C376.215 437.124 375.859 439.202 375.682 441.279L432.816 374.477C431.039 374.685 429.351 375.101 427.574 375.516Z" fill="white"/>
<path opacity="0.5" d="M444.458 373.855L375.149 454.89C375.238 456.449 375.327 458.007 375.416 459.566L448.456 374.167C447.123 373.959 445.79 373.855 444.458 373.855Z" fill="white"/>
<path opacity="0.5" d="M457.962 376.036L377.103 470.577C377.369 471.928 377.725 473.174 378.08 474.525L461.428 377.075C460.184 376.763 459.117 376.451 457.962 376.036Z" fill="white"/>
<path opacity="0.5" d="M469.336 380.71L381.102 483.979C381.546 485.121 381.99 486.264 382.523 487.407L472.357 382.373C471.291 381.853 470.314 381.334 469.336 380.71Z" fill="white"/>
<path opacity="0.5" d="M479.199 387.256L386.61 495.511C387.232 496.55 387.765 497.485 388.387 498.42L481.687 389.334C480.887 388.606 480.088 387.983 479.199 387.256Z" fill="white"/>
<path opacity="0.5" d="M487.73 395.36L393.542 505.485C394.253 506.316 394.964 507.147 395.675 507.978L489.863 397.853C489.152 397.022 488.441 396.191 487.73 395.36Z" fill="white"/>
<path opacity="0.5" d="M495.016 404.917L401.717 514.003C402.517 514.731 403.405 515.458 404.205 516.081L496.793 407.826C496.171 406.787 495.638 405.852 495.016 404.917Z" fill="white"/>
<path opacity="0.5" d="M500.97 415.93L411.136 520.964C412.113 521.588 413.091 522.107 414.068 522.627L502.392 419.358C501.947 418.216 501.414 417.073 500.97 415.93Z" fill="white"/>
<path opacity="0.5" d="M505.412 428.709L422.064 526.159C423.131 526.574 424.286 526.886 425.441 527.302L506.301 432.76C506.034 431.306 505.768 430.059 505.412 428.709Z" fill="white"/>
<path opacity="0.5" d="M507.988 443.773L434.948 529.172C436.281 529.379 437.614 529.483 438.947 529.483L508.255 448.448C508.255 446.889 508.166 445.331 507.988 443.773Z" fill="white"/>
<path opacity="0.5" d="M506.834 468.187C507.19 466.213 507.545 464.136 507.723 462.058L450.588 528.86C452.365 528.548 454.053 528.237 455.83 527.821L506.834 468.187Z" fill="white"/>
<path opacity="0.5" d="M500.347 488.862L473.513 520.133C484.798 512.964 494.127 502.056 500.347 488.862Z" fill="white"/>
</g>
<g opacity="0.5">
<path opacity="0.5" d="M38.292 201.706L52.5979 184.979C46.5557 188.823 41.5797 194.641 38.292 201.706Z" fill="white"/>
<path opacity="0.5" d="M62.0172 180.928L34.8271 212.719C34.6494 213.758 34.4717 214.901 34.3828 215.939L64.8607 180.305C63.8832 180.512 62.9058 180.72 62.0172 180.928Z" fill="white"/>
<path opacity="0.5" d="M70.9918 179.992L34.0273 223.211C34.0273 224.042 34.1162 224.873 34.2051 225.705L73.2132 180.096C72.4135 180.096 71.7026 180.096 70.9918 179.992Z" fill="white"/>
<path opacity="0.5" d="M78.1893 181.239L35.0938 231.626C35.2715 232.354 35.4492 233.081 35.6269 233.704L80.0553 181.758C79.4333 181.551 78.8113 181.447 78.1893 181.239Z" fill="white"/>
<path opacity="0.5" d="M84.3196 183.733L37.2256 238.795C37.4922 239.419 37.6699 240.042 37.9364 240.561L85.8302 184.564C85.2971 184.252 84.8528 184.044 84.3196 183.733Z" fill="white"/>
<path opacity="0.5" d="M89.5625 187.161L40.1582 244.925C40.4248 245.444 40.7802 245.964 41.1356 246.483L90.8953 188.304C90.4511 187.888 90.0068 187.576 89.5625 187.161Z" fill="white"/>
<path opacity="0.5" d="M94.0946 191.524L43.8018 250.327C44.1572 250.742 44.5126 251.262 44.9569 251.677L95.2498 192.875C94.8943 192.355 94.4501 191.94 94.0946 191.524Z" fill="white"/>
<path opacity="0.5" d="M98.0039 196.615L48.2441 254.794C48.6884 255.21 49.1327 255.522 49.577 255.937L98.9814 198.173C98.6259 197.654 98.2705 197.135 98.0039 196.615Z" fill="white"/>
<path opacity="0.5" d="M101.114 202.537L53.2207 258.431C53.7538 258.742 54.1981 259.054 54.7313 259.262L101.825 204.199C101.648 203.68 101.381 203.056 101.114 202.537Z" fill="white"/>
<path opacity="0.5" d="M103.513 209.29L59.085 261.236C59.707 261.443 60.2401 261.651 60.8621 261.859L104.046 211.368C103.869 210.744 103.691 210.017 103.513 209.29Z" fill="white"/>
<path opacity="0.5" d="M104.935 217.289L65.9268 262.898C66.6376 263.002 67.3485 263.002 68.0593 263.106L105.024 219.887C105.024 218.952 104.935 218.121 104.935 217.289Z" fill="white"/>
<path opacity="0.5" d="M104.313 230.38C104.491 229.341 104.668 228.198 104.757 227.159L74.2793 262.794C75.2567 262.69 76.1453 262.482 77.0339 262.274L104.313 230.38Z" fill="white"/>
<path opacity="0.5" d="M100.759 241.392L86.4531 258.119C92.4954 254.275 97.4714 248.457 100.759 241.392Z" fill="white"/>
</g>
<g opacity="0.5">
<path opacity="0.5" d="M57.5745 457.902C54.6423 457.902 52.2432 455.097 52.2432 451.668C52.2432 448.24 54.6423 445.435 57.5745 445.435C60.5068 445.435 62.9059 448.24 62.9059 451.668C62.9059 455.097 60.5068 457.902 57.5745 457.902ZM57.5745 447.513C55.6197 447.513 54.0203 449.383 54.0203 451.668C54.0203 453.954 55.6197 455.824 57.5745 455.824C59.5294 455.824 61.1288 453.954 61.1288 451.668C61.1288 449.383 59.5294 447.513 57.5745 447.513Z" fill="white"/>
</g>
<g opacity="0.5">
<path opacity="0.5" d="M369.728 234.535C366.796 234.535 364.396 231.73 364.396 228.302C364.396 224.873 366.796 222.068 369.728 222.068C372.66 222.068 375.059 224.873 375.059 228.302C375.059 231.73 372.66 234.535 369.728 234.535ZM369.728 224.146C367.773 224.146 366.174 226.016 366.174 228.302C366.174 230.587 367.773 232.457 369.728 232.457C371.683 232.457 373.282 230.587 373.282 228.302C373.282 226.016 371.683 224.146 369.728 224.146Z" fill="white"/>
</g>
<path d="M310.283 410.112C307.35 410.112 304.951 407.307 304.951 403.879C304.951 400.45 307.35 397.645 310.283 397.645C313.215 397.645 315.614 400.45 315.614 403.879C315.614 407.307 313.215 410.112 310.283 410.112ZM310.283 399.723C308.328 399.723 306.728 401.593 306.728 403.879C306.728 406.164 308.328 408.034 310.283 408.034C312.237 408.034 313.837 406.164 313.837 403.879C313.837 401.593 312.237 399.723 310.283 399.723Z" fill="white"/>
<g opacity="0.5">
<path opacity="0.5" d="M448.543 331.881C445.611 331.881 443.212 329.076 443.212 325.648C443.212 322.22 445.611 319.415 448.543 319.415C451.476 319.415 453.875 322.22 453.875 325.648C453.875 329.076 451.476 331.881 448.543 331.881ZM448.543 321.492C446.588 321.492 444.989 323.362 444.989 325.648C444.989 327.934 446.588 329.804 448.543 329.804C450.498 329.804 452.098 327.934 452.098 325.648C452.098 323.362 450.498 321.492 448.543 321.492Z" fill="white"/>
</g>
<g opacity="0.5">
<path opacity="0.5" d="M447.3 48.2578C444.368 48.2578 441.969 45.4527 441.969 42.0243C441.969 38.5959 444.368 35.7908 447.3 35.7908C450.232 35.7908 452.632 38.5959 452.632 42.0243C452.632 45.4527 450.232 48.2578 447.3 48.2578ZM447.3 37.8687C445.345 37.8687 443.746 39.7387 443.746 42.0243C443.746 44.3099 445.345 46.18 447.3 46.18C449.255 46.18 450.854 44.3099 450.854 42.0243C450.854 39.7387 449.255 37.8687 447.3 37.8687Z" fill="white"/>
</g>
<g opacity="0.5">
<path opacity="0.5" d="M4.70446 232.042C1.77219 232.042 -0.626953 229.237 -0.626953 225.808C-0.626953 222.38 1.77219 219.575 4.70446 219.575C7.63674 219.575 10.0359 222.38 10.0359 225.808C10.0359 229.237 7.63674 232.042 4.70446 232.042ZM4.70446 221.653C2.74961 221.653 1.15019 223.523 1.15019 225.808C1.15019 228.094 2.74961 229.964 4.70446 229.964C6.65932 229.964 8.25874 228.094 8.25874 225.808C8.25874 223.419 6.65932 221.653 4.70446 221.653Z" fill="white"/>
</g>
<g opacity="0.5">
<path opacity="0.5" d="M210.319 84.9313C207.386 84.9313 204.987 82.1262 204.987 78.6978C204.987 75.2694 207.386 72.4643 210.319 72.4643C213.251 72.4643 215.65 75.2694 215.65 78.6978C215.65 82.1262 213.251 84.9313 210.319 84.9313ZM210.319 74.5421C208.364 74.5421 206.764 76.4122 206.764 78.6978C206.764 80.9834 208.364 82.8535 210.319 82.8535C212.274 82.8535 213.873 80.9834 213.873 78.6978C213.873 76.4122 212.274 74.5421 210.319 74.5421Z" fill="white"/>
</g>
<path d="M109.466 394.217L99.6922 402.632C99.5144 402.736 99.3367 402.84 99.0702 402.736C98.8925 402.632 98.7148 402.424 98.7148 402.216L97.3819 388.087C97.293 387.568 97.8262 387.152 98.1816 387.36L109.289 393.074C109.466 393.178 109.644 393.386 109.644 393.593C109.733 393.801 109.644 394.009 109.466 394.217ZM99.781 400.762L107.956 393.801L98.7148 389.022L99.781 400.762Z" fill="white"/>
<g opacity="0.5">
<path opacity="0.5" d="M357.554 512.445L350.268 501.121C350.179 500.913 350.091 500.705 350.179 500.394C350.268 500.186 350.446 499.978 350.624 499.978L362.708 498.316C363.152 498.212 363.508 498.835 363.33 499.251L358.532 512.341C358.443 512.549 358.265 512.757 358.088 512.757C357.821 512.757 357.643 512.653 357.554 512.445ZM351.779 501.225L357.821 510.679L361.82 499.77L351.779 501.225Z" fill="white"/>
</g>
<path d="M326.633 68.6205L337.118 61.452C337.296 61.3481 337.562 61.3481 337.74 61.452C337.918 61.5559 338.006 61.7637 338.006 62.0754L338.095 76.3085C338.095 76.828 337.562 77.1396 337.207 76.9318L326.633 69.8672C326.455 69.7633 326.366 69.5555 326.366 69.2439C326.366 68.9322 326.455 68.7244 326.633 68.6205ZM336.851 63.2182L328.143 69.14L336.94 74.9579L336.851 63.2182Z" fill="white"/>
<path d="M185.262 183.836L175.31 175.733C175.132 175.629 175.043 175.317 175.043 175.109C175.043 174.902 175.221 174.694 175.398 174.59L186.417 168.564C186.772 168.356 187.305 168.772 187.216 169.291L186.15 183.421C186.15 183.628 185.972 183.836 185.795 183.94C185.617 183.94 185.439 183.94 185.262 183.836ZM176.82 175.213L185.084 181.966L185.972 170.226L176.82 175.213Z" fill="white"/>
<path d="M520.518 207.108L512.254 217.497C512.077 217.705 511.899 217.705 511.721 217.705C511.544 217.601 511.366 217.497 511.277 217.185L507.723 203.576C507.634 203.056 507.989 202.641 508.434 202.744L520.251 205.861C520.429 205.965 520.607 206.069 520.696 206.381C520.696 206.692 520.607 207.004 520.518 207.108ZM512.077 215.731L518.919 207.108L509.056 204.511L512.077 215.731Z" fill="white"/>
<path d="M87.6083 42.0243L97.738 34.1286C97.9157 34.0247 98.0934 34.0247 98.36 34.1286C98.5377 34.2325 98.7154 34.4403 98.7154 34.7519L99.4262 48.7773C99.4262 49.2967 98.982 49.7123 98.5377 49.4006L87.6083 43.1671C87.4306 43.0633 87.2529 42.8555 87.2529 42.5438C87.3418 42.336 87.4306 42.1282 87.6083 42.0243ZM97.4714 35.8947L89.1189 42.4399L98.1823 47.6345L97.4714 35.8947Z" fill="white"/>
<g opacity="0.5">
<path opacity="0.5" d="M416.2 161.499H407.314C406.781 161.499 406.426 161.084 406.426 160.46V150.071C406.426 149.448 406.781 149.032 407.314 149.032H416.2C416.733 149.032 417.089 149.448 417.089 150.071V160.46C417.089 160.98 416.733 161.499 416.2 161.499ZM408.203 159.422H415.311V151.11H408.203V159.422Z" fill="white"/>
</g>
<path d="M242.485 502.056C242.307 502.264 242.13 502.368 241.863 502.368H232.977C232.711 502.368 232.533 502.264 232.355 502.056C232.178 501.848 232.089 501.64 232.089 501.329V490.939C232.089 490.316 232.444 489.901 232.977 489.901H241.863C242.13 489.901 242.307 490.004 242.485 490.212C242.663 490.42 242.752 490.628 242.752 490.939V501.329C242.752 501.64 242.663 501.848 242.485 502.056ZM233.866 500.29H240.975V491.978H233.866V500.29Z" fill="white"/>
<g opacity="0.5">
<path opacity="0.5" d="M259.546 311.207C259.368 311.415 259.19 311.519 258.924 311.519H250.038C249.771 311.519 249.594 311.415 249.416 311.207C249.238 310.999 249.149 310.791 249.149 310.48V300.091C249.149 299.467 249.505 299.052 250.038 299.052H258.924C259.19 299.052 259.368 299.156 259.546 299.363C259.723 299.571 259.812 299.779 259.812 300.091V310.48C259.812 310.791 259.723 310.999 259.546 311.207ZM250.927 309.441H258.035V301.13H250.927V309.441Z" fill="white"/>
</g>
</g>
<defs>
<linearGradient id="paint0_linear" x1="351.852" y1="81.9728" x2="422.136" y2="21.8595" gradientUnits="userSpaceOnUse">
<stop stop-color="white" stop-opacity="0"/>
<stop offset="1" stop-color="white"/>
</linearGradient>
<linearGradient id="paint1_linear" x1="319.094" y1="355.587" x2="416.946" y2="271.896" gradientUnits="userSpaceOnUse">
<stop stop-color="white" stop-opacity="0"/>
<stop offset="1" stop-color="white"/>
</linearGradient>
<linearGradient id="paint2_linear" x1="476.67" y1="288.408" x2="574.521" y2="204.717" gradientUnits="userSpaceOnUse">
<stop stop-color="white" stop-opacity="0"/>
<stop offset="1" stop-color="white"/>
</linearGradient>
<linearGradient id="paint3_linear" x1="146.858" y1="65.0903" x2="207.961" y2="12.8297" gradientUnits="userSpaceOnUse">
<stop stop-color="white" stop-opacity="0"/>
<stop offset="1" stop-color="white"/>
</linearGradient>
<linearGradient id="paint4_linear" x1="531.773" y1="273.68" x2="572.035" y2="239.245" gradientUnits="userSpaceOnUse">
<stop stop-color="white" stop-opacity="0"/>
<stop offset="1" stop-color="white"/>
</linearGradient>
<linearGradient id="paint5_linear" x1="234.264" y1="559.213" x2="314.764" y2="490.364" gradientUnits="userSpaceOnUse">
<stop stop-color="white" stop-opacity="0"/>
<stop offset="1" stop-color="white"/>
</linearGradient>
<linearGradient id="paint6_linear" x1="105.447" y1="149.769" x2="213.723" y2="57.1621" gradientUnits="userSpaceOnUse">
<stop stop-color="white" stop-opacity="0"/>
<stop offset="1" stop-color="white"/>
</linearGradient>
<linearGradient id="paint7_linear" x1="238.112" y1="395.586" x2="346.389" y2="302.979" gradientUnits="userSpaceOnUse">
<stop stop-color="white" stop-opacity="0"/>
<stop offset="1" stop-color="white"/>
</linearGradient>
<linearGradient id="paint8_linear" x1="472.075" y1="59.3367" x2="516.196" y2="21.6008" gradientUnits="userSpaceOnUse">
<stop stop-color="white" stop-opacity="0"/>
<stop offset="1" stop-color="white"/>
</linearGradient>
<linearGradient id="paint9_linear" x1="276.683" y1="548.888" x2="371.532" y2="467.765" gradientUnits="userSpaceOnUse">
<stop stop-color="white" stop-opacity="0"/>
<stop offset="1" stop-color="white"/>
</linearGradient>
</defs>
</svg>
